<?xml version="1.0" encoding="utf-8"?>
<!-- Generator: Adobe Illustrator 19.0.0, SVG Export Plug-In . SVG Version: 6.00 Build 0)  -->
<svg version="1.1" id="Layer_1" xmlns="http://www.w3.org/2000/svg" xmlns:xlink="http://www.w3.org/1999/xlink" x="0px" y="0px" width="1000" height="850"
	 viewBox="0 0 1000 850" style="enable-background:new 0 0 1000 850;" xml:space="preserve">
<style type="text/css">
	.st0{fill:#E6FCFB;}
	.st1{fill:url(#XMLID_11_);}
	.st2{fill:#FFFFFF;}
	.st3{fill:#FFFF00;}
	.st4{fill:#6EAEC4;}
	.st5{fill:#6E94AB;}
	.st6{fill:#66899D;}
	.st7{fill:#6F93A9;}
	.st8{fill:none;}
	.st9{fill:#B3B3B3;}
	.st10{fill:#576B76;}
</style>
<rect id="XMLID_75_" x="0.5" y="403.5" class="st0" width="1000.5" height="446.5"/>
<linearGradient id="XMLID_11_" gradientUnits="userSpaceOnUse" x1="501.0125" y1="303.9818" x2="501.0125" y2="-2.244815e-008">
	<stop  offset="0" style="stop-color:#CCE0F4"/>
	<stop  offset="0.1729" style="stop-color:#C3DCF5"/>
	<stop  offset="0.4604" style="stop-color:#A9D2F9"/>
	<stop  offset="0.8251" style="stop-color:#80C0FF"/>
	<stop  offset="0.8333" style="stop-color:#7FC0FF"/>
</linearGradient>
<rect id="XMLID_657_" x="1" class="st1" width="1000" height="304"/>
<path id="XMLID_1313_" class="st2" d="M191.5,194.9c0-4.2-3.6-7.6-7.9-7.6c-0.6,0-1.2,0.1-1.8,0.2c0-0.1,0-0.1,0-0.2
	c0-3.5-2.9-6.3-6.6-6.3c-1.7,0-3.3,0.6-4.4,1.7c-1.5-3.8-5.8-6.5-10.8-6.5c-5.7,0-10.4,3.4-11.2,7.9c-0.6-0.1-1.3-0.2-2-0.2
	c-5.3,0-9.5,4.2-9.5,9.3c0,4.2,2.9,7.7,6.9,8.9v0h1.1c0.5,1,1,0.1,1.5,0.1s1,0.9,1.5-0.1h34.1c0.4,1,0.9,0.1,1.4,0.1
	c0.5,0,0.9,0.9,1.4-0.1h0.1v0.3C189,201.7,191.5,198.6,191.5,194.9z"/>
<ellipse id="XMLID_88_" class="st3" cx="714.7" cy="115.8" rx="22.8" ry="21.9"/>
<path id="XMLID_1308_" class="st2" d="M551.8,205.5c0-4.8-3.9-8.7-8.9-8.7c-0.7,0-1.3,0.1-2,0.2c0-0.1,0.1-0.1,0.1-0.2
	c0-4-3.3-7.2-7.5-7.2c-2,0-3.7,0.7-5.1,1.9c-1.7-4.3-6.6-7.4-12.3-7.4c-6.5,0-11.9,3.9-12.8,9c-0.7-0.1-1.5-0.2-2.3-0.2
	c-6.1,0-10.9,4.7-10.9,10.6c0,4.8,2.9,8.8,7.9,10.1v0.4h1.3c0.6,0,1.1,0.1,1.7,0.1s1.1-0.1,1.7-0.1h38.8c0.5,0,1,0.1,1.6,0.1
	s1-0.1,1.6-0.1H544v0C549,213.3,551.8,209.7,551.8,205.5z"/>
<path id="XMLID_1494_" class="st2" d="M442.2,102.3c0-11.9-9.2-21.6-21.7-21.6c-1.8,0-3.1,0.2-4.7,0.6c0-0.2,0.2-0.3,0.2-0.5
	c0-9.9-8.3-17.9-18.6-17.9c-4.9,0-9.3,1.8-12.6,4.8c-4.1-10.7-16.3-18.5-30.8-18.5c-16.2,0-29.7,9.8-32,22.5
	c-1.8-0.4-3.7-0.6-5.7-0.6c-15.2,0-27.7,11.8-27.7,26.4c0,11.9,7.3,21.9,19.3,25.2v1.2h4.2c1.4,0,2.8,0.3,4.2,0.3s2.8-0.3,4.2-0.3
	h96.9c1.3,0,2.5,0.3,3.9,0.3c1.3,0,2.6-0.3,3.9-0.3H422v-0.4C437,121.8,442.2,113,442.2,102.3z"/>
<path id="XMLID_1682_" class="st2" d="M103.1,147.6c0-8-6.4-14.4-14.7-14.4c-1.2,0-2.2,0.1-3.3,0.4c0-0.1,0.1-0.2,0.1-0.3
	c0-6.6-5.5-12-12.4-12c-3.3,0-6.2,1.2-8.4,3.2c-2.8-7.1-10.9-12.3-20.6-12.3c-10.8,0-19.8,6.5-21.3,15c-1.2-0.2-2.5-0.4-3.8-0.4
	c-10.1,0-18.5,7.9-18.5,17.6c0,7.9,4.8,14.6,12.8,16.8v0.7h2.9c0.9,0,1.9,0.2,2.8,0.2s1.9-0.2,2.8-0.2h64.6c0.8,0,1.7,0.2,2.6,0.2
	c0.9,0,1.7-0.2,2.6-0.2H90v-0.2C98,160.6,103.1,154.7,103.1,147.6z"/>
<path id="XMLID_1309_" class="st2" d="M754.7,146c0-6.7-6.7-12.1-15.1-12.1c-1.2,0-2.3,0.1-3.4,0.3c0-0.1,0-0.2,0-0.3
	c0-5.6-5.6-10.1-12.6-10.1c-3.3,0-6.3,1-8.5,2.7c-2.8-6-11-10.4-20.8-10.4c-10.9,0-20,5.5-21.5,12.6c-1.2-0.2-2.5-0.3-3.8-0.3
	c-10.2,0-18.8,6.6-18.8,14.8c0,6.7,4.8,12.3,12.8,14.2v0.5h3.1c0.9,0,1.9,0.2,2.8,0.2c1,0,1.9-0.2,2.8-0.2H737
	c0.8,0,1.7,0.2,2.6,0.2c0.9,0,1.8-0.2,2.6-0.2H742v-0.1C750,156.9,754.7,151.9,754.7,146z"/>
<path id="XMLID_1210_" class="st2" d="M859.5,177c0-7.8,8-14.2,17.8-14.2c1.4,0,2.8,0.1,4.1,0.4c0-0.1,0-0.2,0-0.3
	c0-6.5,6.6-11.8,14.7-11.8c3.8,0,7.3,1.2,9.9,3.1c3.2-7,12.9-12.1,24.3-12.1c12.8,0,23.3,6.4,25.2,14.7c1.4-0.2,2.9-0.4,4.5-0.4
	c12,0,21.5,7.7,21.5,17.3c0,7.8-6.4,14.4-15.4,16.5v0.6h-2.8c-1.1,0-2.2,0.2-3.3,0.2c-1.1,0-2.2-0.2-3.3-0.2h-76.2c-1,0-2,0.2-3,0.2
	c-1,0-2.1-0.2-3-0.2H874v-0.1C865,189.7,859.5,183.9,859.5,177z"/>
<path id="XMLID_1307_" class="st2" d="M335.1,233.9c0-5.7,5.6-10.3,12.7-10.3c1,0,1.9,0.1,2.9,0.3c0-0.1-0.1-0.2-0.1-0.2
	c0-4.7,4.8-8.5,10.6-8.5c2.8,0,5.3,0.9,7.2,2.3c2.4-5.1,9.3-8.8,17.6-8.8c9.3,0,16.9,4.6,18.2,10.7c1-0.2,2.1-0.3,3.2-0.3
	c8.7,0,15.6,5.6,15.6,12.6c0,5.6-5.1,10.4-11.1,12v0.4h-2.1c-0.8,0-1.6,0.2-2.4,0.2c-0.8,0-1.6-0.2-2.4-0.2h-55.3
	c-0.7,0-1.5,0.2-2.2,0.2s-1.5-0.2-2.2-0.2h0.6v0C340,243.1,335.1,238.9,335.1,233.9z"/>
<path id="XMLID_1203_" class="st4" d="M1001,197.8c0,0-11.5-30.1-52.4-31.5c-41-1.3-61.1,36-84,34.8c-22.9-1.3-17.4-16.9-49.2-16.9
	S689.2,292,689.2,292H1001V197.8z"/>
<g id="XMLID_1127_">
	<rect id="XMLID_1200_" x="593.5" y="210.7" class="st5" width="30.7" height="94.8"/>
	<g id="XMLID_1159_">
		<g id="XMLID_1196_">
			<rect id="XMLID_1199_" x="598" y="281.7" class="st6" width="5.9" height="3.6"/>
			<rect id="XMLID_1198_" x="606.3" y="281.7" class="st6" width="5.9" height="3.6"/>
			<rect id="XMLID_1197_" x="614.5" y="281.7" class="st6" width="5.9" height="3.6"/>
		</g>
		<g id="XMLID_1192_">
			<rect id="XMLID_1195_" x="598" y="290.1" class="st6" width="5.9" height="3.6"/>
			<rect id="XMLID_1194_" x="606.3" y="290.1" class="st6" width="5.9" height="3.6"/>
			<rect id="XMLID_1193_" x="614.5" y="290.1" class="st6" width="5.9" height="3.6"/>
		</g>
		<g id="XMLID_1188_">
			<rect id="XMLID_1191_" x="598" y="272.2" class="st6" width="5.9" height="3.5"/>
			<rect id="XMLID_1190_" x="606.3" y="272.2" class="st6" width="5.9" height="3.5"/>
			<rect id="XMLID_1189_" x="614.5" y="272.2" class="st6" width="5.9" height="3.5"/>
		</g>
		<g id="XMLID_1184_">
			<rect id="XMLID_1187_" x="598" y="262.7" class="st6" width="5.9" height="3.5"/>
			<rect id="XMLID_1186_" x="606.3" y="262.7" class="st6" width="5.9" height="3.5"/>
			<rect id="XMLID_1185_" x="614.5" y="262.7" class="st6" width="5.9" height="3.5"/>
		</g>
		<g id="XMLID_1180_">
			<rect id="XMLID_1183_" x="598" y="253.2" class="st6" width="5.9" height="3.5"/>
			<rect id="XMLID_1182_" x="606.3" y="253.2" class="st6" width="5.9" height="3.5"/>
			<rect id="XMLID_1181_" x="614.5" y="253.2" class="st6" width="5.9" height="3.5"/>
		</g>
		<g id="XMLID_1176_">
			<rect id="XMLID_1179_" x="598" y="243.6" class="st6" width="5.9" height="3.5"/>
			<rect id="XMLID_1178_" x="606.3" y="243.6" class="st6" width="5.9" height="3.5"/>
			<rect id="XMLID_1177_" x="614.5" y="243.6" class="st6" width="5.9" height="3.5"/>
		</g>
		<g id="XMLID_1172_">
			<rect id="XMLID_1175_" x="598" y="234.1" class="st6" width="5.9" height="3.5"/>
			<rect id="XMLID_1174_" x="606.3" y="234.1" class="st6" width="5.9" height="3.5"/>
			<rect id="XMLID_1173_" x="614.5" y="234.1" class="st6" width="5.9" height="3.5"/>
		</g>
		<g id="XMLID_1165_">
			<rect id="XMLID_1171_" x="598" y="224.5" class="st6" width="5.9" height="3.5"/>
			<rect id="XMLID_1170_" x="606.3" y="224.5" class="st6" width="5.9" height="3.5"/>
			<rect id="XMLID_1169_" x="614.5" y="224.5" class="st6" width="5.9" height="3.5"/>
		</g>
		<g id="XMLID_1160_">
			<rect id="XMLID_1163_" x="598" y="215" class="st6" width="5.9" height="3.5"/>
			<rect id="XMLID_1162_" x="606.3" y="215" class="st6" width="5.9" height="3.5"/>
			<rect id="XMLID_1161_" x="614.5" y="215" class="st6" width="5.9" height="3.5"/>
		</g>
	</g>
</g>
<path id="XMLID_1124_" class="st6" d="M624.2,211c-0.3-8-7-14.7-15.3-14.7c-8.3,0-15,6.7-15.3,14.7H624.2z"/>
<g id="XMLID_995_">
	<rect id="XMLID_1035_" x="458" y="178.7" class="st5" width="42" height="98.8"/>
</g>
<g id="XMLID_757_">
	<rect id="XMLID_870_" x="170.3" y="234.9" class="st7" width="56.8" height="110.5"/>
	<g id="XMLID_859_">
		<g id="XMLID_293_">
			<rect id="XMLID_297_" x="178.3" y="308.8" class="st6" width="7.9" height="3.6"/>
			<rect id="XMLID_296_" x="189.3" y="308.8" class="st6" width="7.9" height="3.6"/>
			<rect id="XMLID_295_" x="200.3" y="308.8" class="st6" width="7.9" height="3.6"/>
			<rect id="XMLID_294_" x="211.3" y="308.8" class="st6" width="7.9" height="3.6"/>
		</g>
	</g>
	<g id="XMLID_848_">
		<g id="XMLID_287_">
			<rect id="XMLID_291_" x="178.3" y="317.2" class="st6" width="7.9" height="3.6"/>
			<rect id="XMLID_290_" x="189.3" y="317.2" class="st6" width="7.9" height="3.6"/>
			<rect id="XMLID_289_" x="200.3" y="317.2" class="st6" width="7.9" height="3.6"/>
			<rect id="XMLID_288_" x="211.3" y="317.2" class="st6" width="7.9" height="3.6"/>
		</g>
	</g>
	<g id="XMLID_837_">
		<g id="XMLID_281_">
			<rect id="XMLID_285_" x="178.3" y="299.3" class="st6" width="7.9" height="3.5"/>
			<rect id="XMLID_284_" x="189.3" y="299.3" class="st6" width="7.9" height="3.5"/>
			<rect id="XMLID_283_" x="200.3" y="299.3" class="st6" width="7.9" height="3.5"/>
			<rect id="XMLID_282_" x="211.3" y="299.3" class="st6" width="7.9" height="3.5"/>
		</g>
	</g>
	<g id="XMLID_826_">
		<g id="XMLID_275_">
			<rect id="XMLID_279_" x="178.3" y="289.8" class="st6" width="7.9" height="3.5"/>
			<rect id="XMLID_278_" x="189.3" y="289.8" class="st6" width="7.9" height="3.5"/>
			<rect id="XMLID_277_" x="200.3" y="289.8" class="st6" width="7.9" height="3.5"/>
			<rect id="XMLID_276_" x="211.3" y="289.8" class="st6" width="7.9" height="3.5"/>
		</g>
	</g>
	<g id="XMLID_815_">
		<g id="XMLID_269_">
			<rect id="XMLID_273_" x="178.3" y="280.2" class="st6" width="7.9" height="3.5"/>
			<rect id="XMLID_272_" x="189.3" y="280.2" class="st6" width="7.9" height="3.5"/>
			<rect id="XMLID_271_" x="200.3" y="280.2" class="st6" width="7.9" height="3.5"/>
			<rect id="XMLID_270_" x="211.3" y="280.2" class="st6" width="7.9" height="3.5"/>
		</g>
	</g>
	<g id="XMLID_804_">
		<g id="XMLID_263_">
			<rect id="XMLID_267_" x="178.3" y="270.7" class="st6" width="7.9" height="3.5"/>
			<rect id="XMLID_266_" x="189.3" y="270.7" class="st6" width="7.9" height="3.5"/>
			<rect id="XMLID_265_" x="200.3" y="270.7" class="st6" width="7.9" height="3.5"/>
			<rect id="XMLID_264_" x="211.3" y="270.7" class="st6" width="7.9" height="3.5"/>
		</g>
	</g>
	<g id="XMLID_791_">
		<g id="XMLID_257_">
			<rect id="XMLID_261_" x="178.3" y="261.2" class="st6" width="7.9" height="3.5"/>
			<rect id="XMLID_260_" x="189.3" y="261.2" class="st6" width="7.9" height="3.5"/>
			<rect id="XMLID_259_" x="200.3" y="261.2" class="st6" width="7.9" height="3.5"/>
			<rect id="XMLID_258_" x="211.3" y="261.2" class="st6" width="7.9" height="3.5"/>
		</g>
	</g>
	<g id="XMLID_780_">
		<g id="XMLID_251_">
			<rect id="XMLID_255_" x="178.3" y="251.6" class="st6" width="7.9" height="3.5"/>
			<rect id="XMLID_254_" x="189.3" y="251.6" class="st6" width="7.9" height="3.5"/>
			<rect id="XMLID_253_" x="200.3" y="251.6" class="st6" width="7.9" height="3.5"/>
			<rect id="XMLID_252_" x="211.3" y="251.6" class="st6" width="7.9" height="3.5"/>
		</g>
	</g>
	<g id="XMLID_758_">
		<g id="XMLID_245_">
			<rect id="XMLID_249_" x="178.3" y="242.1" class="st6" width="7.9" height="3.5"/>
			<rect id="XMLID_248_" x="189.3" y="242.1" class="st6" width="7.9" height="3.5"/>
			<rect id="XMLID_247_" x="200.3" y="242.1" class="st6" width="7.9" height="3.5"/>
			<rect id="XMLID_246_" x="211.3" y="242.1" class="st6" width="7.9" height="3.5"/>
		</g>
	</g>
</g>
<g id="XMLID_1201_">
	<rect id="XMLID_1304_" x="628.2" y="233.6" class="st7" width="56.8" height="110.5"/>
	<g id="XMLID_1293_">
		<g id="XMLID_237_">
			<rect id="XMLID_241_" x="636.1" y="307.5" class="st6" width="7.9" height="3.6"/>
			<rect id="XMLID_240_" x="647.2" y="307.5" class="st6" width="7.9" height="3.6"/>
			<rect id="XMLID_239_" x="658.2" y="307.5" class="st6" width="7.9" height="3.6"/>
			<rect id="XMLID_238_" x="669.2" y="307.5" class="st6" width="7.9" height="3.6"/>
		</g>
	</g>
	<g id="XMLID_1282_">
		<g id="XMLID_231_">
			<rect id="XMLID_235_" x="636.1" y="315.9" class="st6" width="7.9" height="3.6"/>
			<rect id="XMLID_234_" x="647.2" y="315.9" class="st6" width="7.9" height="3.6"/>
			<rect id="XMLID_233_" x="658.2" y="315.9" class="st6" width="7.9" height="3.6"/>
			<rect id="XMLID_232_" x="669.2" y="315.9" class="st6" width="7.9" height="3.6"/>
		</g>
	</g>
	<g id="XMLID_1271_">
		<g id="XMLID_225_">
			<rect id="XMLID_229_" x="636.1" y="298" class="st6" width="7.9" height="3.5"/>
			<rect id="XMLID_228_" x="647.2" y="298" class="st6" width="7.9" height="3.5"/>
			<rect id="XMLID_227_" x="658.2" y="298" class="st6" width="7.9" height="3.5"/>
			<rect id="XMLID_226_" x="669.2" y="298" class="st6" width="7.9" height="3.5"/>
		</g>
	</g>
	<g id="XMLID_1260_">
		<g id="XMLID_219_">
			<rect id="XMLID_223_" x="636.1" y="288.5" class="st6" width="7.9" height="3.5"/>
			<rect id="XMLID_222_" x="647.2" y="288.5" class="st6" width="7.9" height="3.5"/>
			<rect id="XMLID_221_" x="658.2" y="288.5" class="st6" width="7.9" height="3.5"/>
			<rect id="XMLID_220_" x="669.2" y="288.5" class="st6" width="7.9" height="3.5"/>
		</g>
	</g>
	<g id="XMLID_1249_">
		<g id="XMLID_213_">
			<rect id="XMLID_217_" x="636.1" y="278.9" class="st6" width="7.9" height="3.5"/>
			<rect id="XMLID_216_" x="647.2" y="278.9" class="st6" width="7.9" height="3.5"/>
			<rect id="XMLID_215_" x="658.2" y="278.9" class="st6" width="7.9" height="3.5"/>
			<rect id="XMLID_214_" x="669.2" y="278.9" class="st6" width="7.9" height="3.5"/>
		</g>
	</g>
	<g id="XMLID_1238_">
		<g id="XMLID_207_">
			<rect id="XMLID_211_" x="636.1" y="269.4" class="st6" width="7.9" height="3.5"/>
			<rect id="XMLID_210_" x="647.2" y="269.4" class="st6" width="7.9" height="3.5"/>
			<rect id="XMLID_209_" x="658.2" y="269.4" class="st6" width="7.9" height="3.5"/>
			<rect id="XMLID_208_" x="669.2" y="269.4" class="st6" width="7.9" height="3.5"/>
		</g>
	</g>
	<g id="XMLID_1227_">
		<g id="XMLID_201_">
			<rect id="XMLID_205_" x="636.1" y="259.8" class="st6" width="7.9" height="3.5"/>
			<rect id="XMLID_204_" x="647.2" y="259.8" class="st6" width="7.9" height="3.5"/>
			<rect id="XMLID_203_" x="658.2" y="259.8" class="st6" width="7.9" height="3.5"/>
			<rect id="XMLID_202_" x="669.2" y="259.8" class="st6" width="7.9" height="3.5"/>
		</g>
	</g>
	<g id="XMLID_1216_">
		<g id="XMLID_195_">
			<rect id="XMLID_199_" x="636.1" y="250.3" class="st6" width="7.9" height="3.5"/>
			<rect id="XMLID_198_" x="647.2" y="250.3" class="st6" width="7.9" height="3.5"/>
			<rect id="XMLID_197_" x="658.2" y="250.3" class="st6" width="7.9" height="3.5"/>
			<rect id="XMLID_196_" x="669.2" y="250.3" class="st6" width="7.9" height="3.5"/>
		</g>
	</g>
	<g id="XMLID_1202_">
		<g id="XMLID_189_">
			<rect id="XMLID_193_" x="636.1" y="240.7" class="st6" width="7.9" height="3.5"/>
			<rect id="XMLID_192_" x="647.2" y="240.7" class="st6" width="7.9" height="3.5"/>
			<rect id="XMLID_191_" x="658.2" y="240.7" class="st6" width="7.9" height="3.5"/>
			<rect id="XMLID_190_" x="669.2" y="240.7" class="st6" width="7.9" height="3.5"/>
		</g>
	</g>
</g>
<g id="XMLID_750_">
	<rect id="XMLID_622_" x="131" y="183" class="st5" width="28.5" height="48.9"/>
</g>
<g id="XMLID_627_">
	<rect id="XMLID_749_" x="125.6" y="231.1" class="st5" width="41" height="94.8"/>
	<g id="XMLID_632_">
		<g id="XMLID_745_">
			<rect id="XMLID_748_" x="130.3" y="302.2" class="st6" width="7.9" height="3.6"/>
			<rect id="XMLID_747_" x="141.3" y="302.2" class="st6" width="7.9" height="3.6"/>
			<rect id="XMLID_746_" x="152.3" y="302.2" class="st6" width="7.9" height="3.6"/>
		</g>
		<g id="XMLID_726_">
			<rect id="XMLID_744_" x="130.3" y="310.6" class="st6" width="7.9" height="3.6"/>
			<rect id="XMLID_738_" x="141.3" y="310.6" class="st6" width="7.9" height="3.6"/>
			<rect id="XMLID_732_" x="152.3" y="310.6" class="st6" width="7.9" height="3.6"/>
		</g>
		<g id="XMLID_683_">
			<rect id="XMLID_720_" x="130.3" y="292.7" class="st6" width="7.9" height="3.5"/>
			<rect id="XMLID_714_" x="141.3" y="292.7" class="st6" width="7.9" height="3.5"/>
			<rect id="XMLID_684_" x="152.3" y="292.7" class="st6" width="7.9" height="3.5"/>
		</g>
		<g id="XMLID_679_">
			<rect id="XMLID_682_" x="130.3" y="283.1" class="st6" width="7.9" height="3.5"/>
			<rect id="XMLID_681_" x="141.3" y="283.1" class="st6" width="7.9" height="3.5"/>
			<rect id="XMLID_680_" x="152.3" y="283.1" class="st6" width="7.9" height="3.5"/>
		</g>
		<g id="XMLID_675_">
			<rect id="XMLID_678_" x="130.3" y="273.6" class="st6" width="7.9" height="3.5"/>
			<rect id="XMLID_677_" x="141.3" y="273.6" class="st6" width="7.9" height="3.5"/>
			<rect id="XMLID_676_" x="152.3" y="273.6" class="st6" width="7.9" height="3.5"/>
		</g>
		<g id="XMLID_671_">
			<rect id="XMLID_674_" x="130.3" y="264.1" class="st6" width="7.9" height="3.5"/>
			<rect id="XMLID_673_" x="141.3" y="264.1" class="st6" width="7.9" height="3.5"/>
			<rect id="XMLID_672_" x="152.3" y="264.1" class="st6" width="7.9" height="3.5"/>
		</g>
		<g id="XMLID_667_">
			<rect id="XMLID_670_" x="130.3" y="254.5" class="st6" width="7.9" height="3.5"/>
			<rect id="XMLID_669_" x="141.3" y="254.5" class="st6" width="7.9" height="3.5"/>
			<rect id="XMLID_668_" x="152.3" y="254.5" class="st6" width="7.9" height="3.5"/>
		</g>
		<g id="XMLID_660_">
			<rect id="XMLID_666_" x="130.3" y="245" class="st6" width="7.9" height="3.5"/>
			<rect id="XMLID_665_" x="141.3" y="245" class="st6" width="7.9" height="3.5"/>
			<rect id="XMLID_663_" x="152.3" y="245" class="st6" width="7.9" height="3.5"/>
		</g>
		<g id="XMLID_637_">
			<rect id="XMLID_652_" x="130.3" y="235.4" class="st6" width="7.9" height="3.5"/>
			<rect id="XMLID_647_" x="141.3" y="235.4" class="st6" width="7.9" height="3.5"/>
			<rect id="XMLID_642_" x="152.3" y="235.4" class="st6" width="7.9" height="3.5"/>
		</g>
	</g>
	<g id="XMLID_751_">
		<g id="XMLID_770_">
			<rect id="XMLID_773_" x="136.6" y="226.1" class="st6" width="7.9" height="3.5"/>
			<rect id="XMLID_772_" x="147.6" y="226.1" class="st6" width="7.9" height="3.5"/>
		</g>
		<g id="XMLID_766_">
			<rect id="XMLID_769_" x="136.6" y="216.5" class="st6" width="7.9" height="3.5"/>
			<rect id="XMLID_768_" x="147.6" y="216.5" class="st6" width="7.9" height="3.5"/>
		</g>
		<g id="XMLID_762_">
			<rect id="XMLID_765_" x="136.6" y="207" class="st6" width="7.9" height="3.5"/>
			<rect id="XMLID_764_" x="147.6" y="207" class="st6" width="7.9" height="3.5"/>
		</g>
		<g id="XMLID_756_">
			<rect id="XMLID_761_" x="136.6" y="197.5" class="st6" width="7.9" height="3.5"/>
			<rect id="XMLID_760_" x="147.6" y="197.5" class="st6" width="7.9" height="3.5"/>
		</g>
		<g id="XMLID_752_">
			<rect id="XMLID_755_" x="136.6" y="187.9" class="st6" width="7.9" height="3.5"/>
			<rect id="XMLID_754_" x="147.6" y="187.9" class="st6" width="7.9" height="3.5"/>
		</g>
	</g>
</g>
<g id="XMLID_605_">
	<rect id="XMLID_656_" x="80.9" y="195.3" class="st5" width="41" height="94.8"/>
	<g id="XMLID_593_">
		<g id="XMLID_651_">
			<rect id="XMLID_655_" x="85.6" y="266.4" class="st6" width="7.9" height="3.6"/>
			<rect id="XMLID_654_" x="96.6" y="266.4" class="st6" width="7.9" height="3.6"/>
			<rect id="XMLID_653_" x="107.6" y="266.4" class="st6" width="7.9" height="3.6"/>
		</g>
		<g id="XMLID_646_">
			<rect id="XMLID_650_" x="85.6" y="274.8" class="st6" width="7.9" height="3.6"/>
			<rect id="XMLID_649_" x="96.6" y="274.8" class="st6" width="7.9" height="3.6"/>
			<rect id="XMLID_648_" x="107.6" y="274.8" class="st6" width="7.9" height="3.6"/>
		</g>
		<g id="XMLID_641_">
			<rect id="XMLID_645_" x="85.6" y="256.9" class="st6" width="7.9" height="3.5"/>
			<rect id="XMLID_644_" x="96.6" y="256.9" class="st6" width="7.9" height="3.5"/>
			<rect id="XMLID_643_" x="107.6" y="256.9" class="st6" width="7.9" height="3.5"/>
		</g>
		<g id="XMLID_636_">
			<rect id="XMLID_640_" x="85.6" y="247.4" class="st6" width="7.9" height="3.5"/>
			<rect id="XMLID_639_" x="96.6" y="247.4" class="st6" width="7.9" height="3.5"/>
			<rect id="XMLID_638_" x="100.7" y="284.2" class="st8" width="7.9" height="3.5"/>
		</g>
		<g id="XMLID_631_">
			<rect id="XMLID_635_" x="85.6" y="237.8" class="st6" width="7.9" height="3.5"/>
			<rect id="XMLID_634_" x="96.6" y="237.8" class="st6" width="7.9" height="3.5"/>
			<rect id="XMLID_633_" x="107.6" y="237.8" class="st6" width="7.9" height="3.5"/>
		</g>
		<g id="XMLID_626_">
			<rect id="XMLID_630_" x="85.6" y="228.3" class="st6" width="7.9" height="3.5"/>
			<rect id="XMLID_629_" x="96.6" y="228.3" class="st6" width="7.9" height="3.5"/>
			<rect id="XMLID_628_" x="107.6" y="228.3" class="st6" width="7.9" height="3.5"/>
		</g>
		<g id="XMLID_621_">
			<rect id="XMLID_625_" x="85.6" y="218.7" class="st6" width="7.9" height="3.5"/>
			<rect id="XMLID_624_" x="96.6" y="218.7" class="st6" width="7.9" height="3.5"/>
			<rect id="XMLID_623_" x="107.6" y="218.7" class="st6" width="7.9" height="3.5"/>
		</g>
		<g id="XMLID_616_">
			<rect id="XMLID_620_" x="85.6" y="209.2" class="st6" width="7.9" height="3.5"/>
			<rect id="XMLID_619_" x="96.6" y="209.2" class="st6" width="7.9" height="3.5"/>
			<rect id="XMLID_618_" x="107.6" y="209.2" class="st6" width="7.9" height="3.5"/>
		</g>
		<g id="XMLID_610_">
			<rect id="XMLID_615_" x="85.6" y="199.7" class="st6" width="7.9" height="3.5"/>
			<rect id="XMLID_613_" x="96.6" y="199.7" class="st6" width="7.9" height="3.5"/>
			<rect id="XMLID_612_" x="107.6" y="199.7" class="st6" width="7.9" height="3.5"/>
		</g>
	</g>
</g>
<g id="XMLID_659_">
	<rect id="XMLID_911_" x="227.9" y="194.7" class="st5" width="30.7" height="94.8"/>
	<g id="XMLID_753_">
		<g id="XMLID_907_">
			<rect id="XMLID_910_" x="232.4" y="265.7" class="st6" width="5.9" height="3.6"/>
			<rect id="XMLID_909_" x="240.7" y="265.7" class="st6" width="5.9" height="3.6"/>
			<rect id="XMLID_908_" x="248.9" y="265.7" class="st6" width="5.9" height="3.6"/>
		</g>
		<g id="XMLID_903_">
			<rect id="XMLID_906_" x="232.4" y="274.1" class="st6" width="5.9" height="3.6"/>
			<rect id="XMLID_905_" x="240.7" y="274.1" class="st6" width="5.9" height="3.6"/>
			<rect id="XMLID_904_" x="248.9" y="274.1" class="st6" width="5.9" height="3.6"/>
		</g>
		<g id="XMLID_899_">
			<rect id="XMLID_902_" x="232.4" y="256.2" class="st6" width="5.9" height="3.5"/>
			<rect id="XMLID_901_" x="240.7" y="256.2" class="st6" width="5.9" height="3.5"/>
			<rect id="XMLID_900_" x="248.9" y="256.2" class="st6" width="5.9" height="3.5"/>
		</g>
		<g id="XMLID_895_">
			<rect id="XMLID_898_" x="232.4" y="246.7" class="st6" width="5.9" height="3.5"/>
			<rect id="XMLID_897_" x="240.7" y="246.7" class="st6" width="5.9" height="3.5"/>
			<rect id="XMLID_896_" x="248.9" y="246.7" class="st6" width="5.9" height="3.5"/>
		</g>
		<g id="XMLID_891_">
			<rect id="XMLID_894_" x="232.4" y="237.2" class="st6" width="5.9" height="3.5"/>
			<rect id="XMLID_893_" x="240.7" y="237.2" class="st6" width="5.9" height="3.5"/>
			<rect id="XMLID_892_" x="248.9" y="237.2" class="st6" width="5.9" height="3.5"/>
		</g>
		<g id="XMLID_887_">
			<rect id="XMLID_890_" x="232.4" y="227.6" class="st6" width="5.9" height="3.5"/>
			<rect id="XMLID_889_" x="240.7" y="227.6" class="st6" width="5.9" height="3.5"/>
			<rect id="XMLID_888_" x="248.9" y="227.6" class="st6" width="5.9" height="3.5"/>
		</g>
		<g id="XMLID_883_">
			<rect id="XMLID_886_" x="232.4" y="218.1" class="st6" width="5.9" height="3.5"/>
			<rect id="XMLID_885_" x="240.7" y="218.1" class="st6" width="5.9" height="3.5"/>
			<rect id="XMLID_884_" x="248.9" y="218.1" class="st6" width="5.9" height="3.5"/>
		</g>
		<g id="XMLID_877_">
			<rect id="XMLID_882_" x="232.4" y="208.5" class="st6" width="5.9" height="3.5"/>
			<rect id="XMLID_881_" x="240.7" y="208.5" class="st6" width="5.9" height="3.5"/>
			<rect id="XMLID_879_" x="248.9" y="208.5" class="st6" width="5.9" height="3.5"/>
		</g>
		<g id="XMLID_873_">
			<rect id="XMLID_876_" x="232.4" y="199" class="st6" width="5.9" height="3.5"/>
			<rect id="XMLID_875_" x="240.7" y="199" class="st6" width="5.9" height="3.5"/>
			<rect id="XMLID_874_" x="248.9" y="199" class="st6" width="5.9" height="3.5"/>
		</g>
	</g>
</g>
<g id="XMLID_912_">
	<rect id="XMLID_953_" x="275.6" y="209.5" class="st5" width="47.6" height="94.8"/>
	<g id="XMLID_913_">
		<g id="XMLID_949_">
			<rect id="XMLID_952_" x="282.6" y="280.6" class="st6" width="9.2" height="3.6"/>
			<rect id="XMLID_951_" x="295.4" y="280.6" class="st6" width="9.2" height="3.6"/>
			<rect id="XMLID_950_" x="308.2" y="280.6" class="st6" width="9.2" height="3.6"/>
		</g>
		<g id="XMLID_945_">
			<rect id="XMLID_948_" x="282.6" y="289" class="st6" width="9.2" height="3.6"/>
			<rect id="XMLID_947_" x="295.4" y="289" class="st6" width="9.2" height="3.6"/>
			<rect id="XMLID_946_" x="308.2" y="289" class="st6" width="9.2" height="3.6"/>
		</g>
		<g id="XMLID_941_">
			<rect id="XMLID_944_" x="282.6" y="271.1" class="st6" width="9.2" height="3.5"/>
			<rect id="XMLID_943_" x="295.4" y="271.1" class="st6" width="9.2" height="3.5"/>
			<rect id="XMLID_942_" x="308.2" y="271.1" class="st6" width="9.2" height="3.5"/>
		</g>
		<g id="XMLID_937_">
			<rect id="XMLID_940_" x="282.6" y="261.6" class="st6" width="9.2" height="3.5"/>
			<rect id="XMLID_939_" x="295.4" y="261.6" class="st6" width="9.2" height="3.5"/>
			<rect id="XMLID_938_" x="308.2" y="261.6" class="st6" width="9.2" height="3.5"/>
		</g>
		<g id="XMLID_933_">
			<rect id="XMLID_936_" x="282.6" y="252" class="st6" width="9.2" height="3.5"/>
			<rect id="XMLID_935_" x="295.4" y="252" class="st6" width="9.2" height="3.5"/>
			<rect id="XMLID_934_" x="308.2" y="252" class="st6" width="9.2" height="3.5"/>
		</g>
		<g id="XMLID_929_">
			<rect id="XMLID_932_" x="282.6" y="242.5" class="st6" width="9.2" height="3.5"/>
			<rect id="XMLID_931_" x="295.4" y="242.5" class="st6" width="9.2" height="3.5"/>
			<rect id="XMLID_930_" x="308.2" y="242.5" class="st6" width="9.2" height="3.5"/>
		</g>
		<g id="XMLID_925_">
			<rect id="XMLID_928_" x="282.6" y="232.9" class="st6" width="9.2" height="3.5"/>
			<rect id="XMLID_927_" x="295.4" y="232.9" class="st6" width="9.2" height="3.5"/>
			<rect id="XMLID_926_" x="308.2" y="232.9" class="st6" width="9.2" height="3.5"/>
		</g>
		<g id="XMLID_919_">
			<rect id="XMLID_924_" x="282.6" y="223.4" class="st6" width="9.2" height="3.5"/>
			<rect id="XMLID_923_" x="295.4" y="223.4" class="st6" width="9.2" height="3.5"/>
			<rect id="XMLID_921_" x="308.2" y="223.4" class="st6" width="9.2" height="3.5"/>
		</g>
		<g id="XMLID_915_">
			<rect id="XMLID_918_" x="282.6" y="213.8" class="st6" width="9.2" height="3.5"/>
			<rect id="XMLID_917_" x="295.4" y="213.8" class="st6" width="9.2" height="3.5"/>
			<rect id="XMLID_916_" x="308.2" y="213.8" class="st6" width="9.2" height="3.5"/>
		</g>
	</g>
</g>
<g id="XMLID_996_">
	<rect id="XMLID_1037_" x="303.9" y="193.2" class="st5" width="47.6" height="96.7"/>
	<g id="XMLID_997_">
		<g id="XMLID_1032_">
			<rect id="XMLID_1036_" x="311" y="265.8" class="st6" width="9.2" height="3.7"/>
			<rect id="XMLID_1034_" x="323.8" y="265.8" class="st6" width="9.2" height="3.7"/>
			<rect id="XMLID_1033_" x="336.6" y="265.8" class="st6" width="9.2" height="3.7"/>
		</g>
		<g id="XMLID_1028_">
			<rect id="XMLID_1031_" x="311" y="274.3" class="st6" width="9.2" height="3.7"/>
			<rect id="XMLID_1030_" x="323.8" y="274.3" class="st6" width="9.2" height="3.7"/>
			<rect id="XMLID_1029_" x="336.6" y="274.3" class="st6" width="9.2" height="3.7"/>
		</g>
		<g id="XMLID_1024_">
			<rect id="XMLID_1027_" x="311" y="256.1" class="st6" width="9.2" height="3.6"/>
			<rect id="XMLID_1026_" x="323.8" y="256.1" class="st6" width="9.2" height="3.6"/>
			<rect id="XMLID_1025_" x="336.6" y="256.1" class="st6" width="9.2" height="3.6"/>
		</g>
		<g id="XMLID_1020_">
			<rect id="XMLID_1023_" x="311" y="246.3" class="st6" width="9.2" height="3.6"/>
			<rect id="XMLID_1022_" x="323.8" y="246.3" class="st6" width="9.2" height="3.6"/>
			<rect id="XMLID_1021_" x="336.6" y="246.3" class="st6" width="9.2" height="3.6"/>
		</g>
		<g id="XMLID_1016_">
			<rect id="XMLID_1019_" x="311" y="236.6" class="st6" width="9.2" height="3.6"/>
			<rect id="XMLID_1018_" x="323.8" y="236.6" class="st6" width="9.2" height="3.6"/>
			<rect id="XMLID_1017_" x="336.6" y="236.6" class="st6" width="9.2" height="3.6"/>
		</g>
		<g id="XMLID_1012_">
			<rect id="XMLID_1015_" x="311" y="226.9" class="st6" width="9.2" height="3.6"/>
			<rect id="XMLID_1014_" x="323.8" y="226.9" class="st6" width="9.2" height="3.6"/>
			<rect id="XMLID_1013_" x="336.6" y="226.9" class="st6" width="9.2" height="3.6"/>
		</g>
		<g id="XMLID_1008_">
			<rect id="XMLID_1011_" x="311" y="217.1" class="st6" width="9.2" height="3.6"/>
			<rect id="XMLID_1010_" x="323.8" y="217.1" class="st6" width="9.2" height="3.6"/>
			<rect id="XMLID_1009_" x="336.6" y="217.1" class="st6" width="9.2" height="3.6"/>
		</g>
		<g id="XMLID_1003_">
			<rect id="XMLID_1007_" x="311" y="207.4" class="st6" width="9.2" height="3.6"/>
			<rect id="XMLID_1006_" x="323.8" y="207.4" class="st6" width="9.2" height="3.6"/>
			<rect id="XMLID_1005_" x="336.6" y="207.4" class="st6" width="9.2" height="3.6"/>
		</g>
		<g id="XMLID_998_">
			<rect id="XMLID_1001_" x="311" y="197.7" class="st6" width="9.2" height="3.6"/>
			<rect id="XMLID_1000_" x="323.8" y="197.7" class="st6" width="9.2" height="3.6"/>
			<rect id="XMLID_999_" x="336.6" y="197.7" class="st6" width="9.2" height="3.6"/>
		</g>
	</g>
</g>
<g id="XMLID_1040_">
	<rect id="XMLID_1080_" x="411" y="211.3" class="st5" width="47.6" height="94.8"/>
	<g id="XMLID_1041_">
		<g id="XMLID_1076_">
			<rect id="XMLID_1079_" x="418" y="282.3" class="st6" width="9.2" height="3.6"/>
			<rect id="XMLID_1078_" x="430.8" y="282.3" class="st6" width="9.2" height="3.6"/>
			<rect id="XMLID_1077_" x="443.6" y="282.3" class="st6" width="9.2" height="3.6"/>
		</g>
		<g id="XMLID_1072_">
			<rect id="XMLID_1075_" x="418" y="290.7" class="st6" width="9.2" height="3.6"/>
			<rect id="XMLID_1074_" x="430.8" y="290.7" class="st6" width="9.2" height="3.6"/>
			<rect id="XMLID_1073_" x="443.6" y="290.7" class="st6" width="9.2" height="3.6"/>
		</g>
		<g id="XMLID_1068_">
			<rect id="XMLID_1071_" x="418" y="272.8" class="st6" width="9.2" height="3.5"/>
			<rect id="XMLID_1070_" x="430.8" y="272.8" class="st6" width="9.2" height="3.5"/>
			<rect id="XMLID_1069_" x="443.6" y="272.8" class="st6" width="9.2" height="3.5"/>
		</g>
		<g id="XMLID_1064_">
			<rect id="XMLID_1067_" x="418" y="263.3" class="st6" width="9.2" height="3.5"/>
			<rect id="XMLID_1066_" x="430.8" y="263.3" class="st6" width="9.2" height="3.5"/>
			<rect id="XMLID_1065_" x="443.6" y="263.3" class="st6" width="9.2" height="3.5"/>
		</g>
		<g id="XMLID_1060_">
			<rect id="XMLID_1063_" x="418" y="253.8" class="st6" width="9.2" height="3.5"/>
			<rect id="XMLID_1062_" x="430.8" y="253.8" class="st6" width="9.2" height="3.5"/>
			<rect id="XMLID_1061_" x="443.6" y="253.8" class="st6" width="9.2" height="3.5"/>
		</g>
		<g id="XMLID_1056_">
			<rect id="XMLID_1059_" x="418" y="244.2" class="st6" width="9.2" height="3.5"/>
			<rect id="XMLID_1058_" x="430.8" y="244.2" class="st6" width="9.2" height="3.5"/>
			<rect id="XMLID_1057_" x="443.6" y="244.2" class="st6" width="9.2" height="3.5"/>
		</g>
		<g id="XMLID_1052_">
			<rect id="XMLID_1055_" x="418" y="234.7" class="st6" width="9.2" height="3.5"/>
			<rect id="XMLID_1054_" x="430.8" y="234.7" class="st6" width="9.2" height="3.5"/>
			<rect id="XMLID_1053_" x="443.6" y="234.7" class="st6" width="9.2" height="3.5"/>
		</g>
		<g id="XMLID_1048_">
			<rect id="XMLID_1051_" x="418" y="225.1" class="st6" width="9.2" height="3.5"/>
			<rect id="XMLID_1050_" x="430.8" y="225.1" class="st6" width="9.2" height="3.5"/>
			<rect id="XMLID_1049_" x="443.6" y="225.1" class="st6" width="9.2" height="3.5"/>
		</g>
		<g id="XMLID_1042_">
			<rect id="XMLID_1047_" x="418" y="215.6" class="st6" width="9.2" height="3.5"/>
			<rect id="XMLID_1046_" x="430.8" y="215.6" class="st6" width="9.2" height="3.5"/>
			<rect id="XMLID_1044_" x="443.6" y="215.6" class="st6" width="9.2" height="3.5"/>
		</g>
	</g>
</g>
<g id="XMLID_920_">
	<rect id="XMLID_1158_" x="536.1" y="222.1" class="st5" width="38.3" height="94.8"/>
	<g id="XMLID_922_">
		<g id="XMLID_1154_">
			<rect id="XMLID_1157_" x="541.8" y="293.2" class="st6" width="7.4" height="3.6"/>
			<rect id="XMLID_1156_" x="552.1" y="293.2" class="st6" width="7.4" height="3.6"/>
			<rect id="XMLID_1155_" x="562.4" y="293.2" class="st6" width="7.4" height="3.6"/>
		</g>
		<g id="XMLID_1150_">
			<rect id="XMLID_1153_" x="541.8" y="301.6" class="st6" width="7.4" height="3.6"/>
			<rect id="XMLID_1152_" x="552.1" y="301.6" class="st6" width="7.4" height="3.6"/>
			<rect id="XMLID_1151_" x="562.4" y="301.6" class="st6" width="7.4" height="3.6"/>
		</g>
		<g id="XMLID_1146_">
			<rect id="XMLID_1149_" x="541.8" y="283.7" class="st6" width="7.4" height="3.5"/>
			<rect id="XMLID_1148_" x="552.1" y="283.7" class="st6" width="7.4" height="3.5"/>
			<rect id="XMLID_1147_" x="562.4" y="283.7" class="st6" width="7.4" height="3.5"/>
		</g>
		<g id="XMLID_1142_">
			<rect id="XMLID_1145_" x="541.8" y="274.1" class="st6" width="7.4" height="3.5"/>
			<rect id="XMLID_1144_" x="552.1" y="274.1" class="st6" width="7.4" height="3.5"/>
			<rect id="XMLID_1143_" x="562.4" y="274.1" class="st6" width="7.4" height="3.5"/>
		</g>
		<g id="XMLID_1138_">
			<rect id="XMLID_1141_" x="541.8" y="264.6" class="st6" width="7.4" height="3.5"/>
			<rect id="XMLID_1140_" x="552.1" y="264.6" class="st6" width="7.4" height="3.5"/>
			<rect id="XMLID_1139_" x="562.4" y="264.6" class="st6" width="7.4" height="3.5"/>
		</g>
		<g id="XMLID_1134_">
			<rect id="XMLID_1137_" x="541.8" y="255.1" class="st6" width="7.4" height="3.5"/>
			<rect id="XMLID_1136_" x="552.1" y="255.1" class="st6" width="7.4" height="3.5"/>
			<rect id="XMLID_1135_" x="562.4" y="255.1" class="st6" width="7.4" height="3.5"/>
		</g>
		<g id="XMLID_1130_">
			<rect id="XMLID_1133_" x="541.8" y="245.5" class="st6" width="7.4" height="3.5"/>
			<rect id="XMLID_1132_" x="552.1" y="245.5" class="st6" width="7.4" height="3.5"/>
			<rect id="XMLID_1131_" x="562.4" y="245.5" class="st6" width="7.4" height="3.5"/>
		</g>
		<g id="XMLID_1038_">
			<rect id="XMLID_1129_" x="541.8" y="236" class="st6" width="7.4" height="3.5"/>
			<rect id="XMLID_1128_" x="552.1" y="236" class="st6" width="7.4" height="3.5"/>
			<rect id="XMLID_1082_" x="562.4" y="236" class="st6" width="7.4" height="3.5"/>
		</g>
		<g id="XMLID_961_">
			<rect id="XMLID_1004_" x="541.8" y="226.4" class="st6" width="7.4" height="3.5"/>
			<rect id="XMLID_1002_" x="552.1" y="226.4" class="st6" width="7.4" height="3.5"/>
			<rect id="XMLID_963_" x="562.4" y="226.4" class="st6" width="7.4" height="3.5"/>
		</g>
	</g>
</g>
<g id="XMLID_954_">
	<rect id="XMLID_994_" x="454.9" y="230.4" class="st5" width="49.2" height="98.8"/>
	<g id="XMLID_955_">
		<g id="XMLID_990_">
			<rect id="XMLID_993_" x="462.2" y="304.5" class="st6" width="9.5" height="3.7"/>
			<rect id="XMLID_992_" x="475.4" y="304.5" class="st6" width="9.5" height="3.7"/>
			<rect id="XMLID_991_" x="488.7" y="304.5" class="st6" width="9.5" height="3.7"/>
		</g>
		<g id="XMLID_986_">
			<rect id="XMLID_989_" x="462.2" y="313.2" class="st6" width="9.5" height="3.7"/>
			<rect id="XMLID_988_" x="475.4" y="313.2" class="st6" width="9.5" height="3.7"/>
			<rect id="XMLID_987_" x="488.7" y="313.2" class="st6" width="9.5" height="3.7"/>
		</g>
		<g id="XMLID_982_">
			<rect id="XMLID_985_" x="462.2" y="294.6" class="st6" width="9.5" height="3.6"/>
			<rect id="XMLID_984_" x="475.4" y="294.6" class="st6" width="9.5" height="3.6"/>
			<rect id="XMLID_983_" x="488.7" y="294.6" class="st6" width="9.5" height="3.6"/>
		</g>
		<g id="XMLID_978_">
			<rect id="XMLID_981_" x="462.2" y="284.6" class="st6" width="9.5" height="3.6"/>
			<rect id="XMLID_980_" x="475.4" y="284.6" class="st6" width="9.5" height="3.6"/>
			<rect id="XMLID_979_" x="488.7" y="284.6" class="st6" width="9.5" height="3.6"/>
		</g>
		<g id="XMLID_974_">
			<rect id="XMLID_977_" x="462.2" y="274.7" class="st6" width="9.5" height="3.6"/>
			<rect id="XMLID_976_" x="475.4" y="274.7" class="st6" width="9.5" height="3.6"/>
			<rect id="XMLID_975_" x="488.7" y="274.7" class="st6" width="9.5" height="3.6"/>
		</g>
		<g id="XMLID_970_">
			<rect id="XMLID_973_" x="462.2" y="264.7" class="st6" width="9.5" height="3.6"/>
			<rect id="XMLID_972_" x="475.4" y="264.7" class="st6" width="9.5" height="3.6"/>
			<rect id="XMLID_971_" x="488.7" y="264.7" class="st6" width="9.5" height="3.6"/>
		</g>
		<g id="XMLID_966_">
			<rect id="XMLID_969_" x="462.2" y="254.8" class="st6" width="9.5" height="3.6"/>
			<rect id="XMLID_968_" x="475.4" y="254.8" class="st6" width="9.5" height="3.6"/>
			<rect id="XMLID_967_" x="488.7" y="254.8" class="st6" width="9.5" height="3.6"/>
		</g>
		<g id="XMLID_960_">
			<rect id="XMLID_965_" x="462.2" y="244.8" class="st6" width="9.5" height="3.6"/>
			<rect id="XMLID_964_" x="475.4" y="244.8" class="st6" width="9.5" height="3.6"/>
			<rect id="XMLID_962_" x="488.7" y="244.8" class="st6" width="9.5" height="3.6"/>
		</g>
		<g id="XMLID_956_">
			<rect id="XMLID_959_" x="462.2" y="234.9" class="st6" width="9.5" height="3.6"/>
			<rect id="XMLID_958_" x="475.4" y="234.9" class="st6" width="9.5" height="3.6"/>
			<rect id="XMLID_957_" x="488.7" y="234.9" class="st6" width="9.5" height="3.6"/>
		</g>
	</g>
	<g id="XMLID_1083_">
		<g id="XMLID_1116_">
			<rect id="XMLID_1119_" x="462.2" y="253.7" class="st6" width="9.5" height="3.7"/>
			<rect id="XMLID_1118_" x="475.4" y="253.7" class="st6" width="9.5" height="3.7"/>
			<rect id="XMLID_1117_" x="488.7" y="253.7" class="st6" width="9.5" height="3.7"/>
		</g>
		<g id="XMLID_1112_">
			<rect id="XMLID_1115_" x="462.2" y="262.4" class="st6" width="9.5" height="3.7"/>
			<rect id="XMLID_1114_" x="475.4" y="262.4" class="st6" width="9.5" height="3.7"/>
			<rect id="XMLID_1113_" x="488.7" y="262.4" class="st6" width="9.5" height="3.7"/>
		</g>
		<g id="XMLID_1108_">
			<rect id="XMLID_1111_" x="462.2" y="243.8" class="st6" width="9.5" height="3.6"/>
			<rect id="XMLID_1110_" x="475.4" y="243.8" class="st6" width="9.5" height="3.6"/>
			<rect id="XMLID_1109_" x="488.7" y="243.8" class="st6" width="9.5" height="3.6"/>
		</g>
		<g id="XMLID_1104_">
			<rect id="XMLID_1107_" x="462.2" y="233.8" class="st6" width="9.5" height="3.6"/>
			<rect id="XMLID_1106_" x="475.4" y="233.8" class="st6" width="9.5" height="3.6"/>
			<rect id="XMLID_1105_" x="488.7" y="233.8" class="st6" width="9.5" height="3.6"/>
		</g>
		<g id="XMLID_1100_">
			<rect id="XMLID_1103_" x="462.2" y="223.9" class="st6" width="9.5" height="3.6"/>
			<rect id="XMLID_1102_" x="475.4" y="223.9" class="st6" width="9.5" height="3.6"/>
			<rect id="XMLID_1101_" x="488.7" y="223.9" class="st6" width="9.5" height="3.6"/>
		</g>
		<g id="XMLID_1096_">
			<rect id="XMLID_1099_" x="462.2" y="213.9" class="st6" width="9.5" height="3.6"/>
			<rect id="XMLID_1098_" x="475.4" y="213.9" class="st6" width="9.5" height="3.6"/>
			<rect id="XMLID_1097_" x="488.7" y="213.9" class="st6" width="9.5" height="3.6"/>
		</g>
		<g id="XMLID_1092_">
			<rect id="XMLID_1095_" x="462.2" y="204" class="st6" width="9.5" height="3.6"/>
			<rect id="XMLID_1094_" x="475.4" y="204" class="st6" width="9.5" height="3.6"/>
			<rect id="XMLID_1093_" x="488.7" y="204" class="st6" width="9.5" height="3.6"/>
		</g>
		<g id="XMLID_1088_">
			<rect id="XMLID_1091_" x="462.2" y="194" class="st6" width="9.5" height="3.6"/>
			<rect id="XMLID_1090_" x="475.4" y="194" class="st6" width="9.5" height="3.6"/>
			<rect id="XMLID_1089_" x="488.7" y="194" class="st6" width="9.5" height="3.6"/>
		</g>
		<g id="XMLID_1084_">
			<rect id="XMLID_1087_" x="462.2" y="184.1" class="st6" width="9.5" height="3.6"/>
			<rect id="XMLID_1086_" x="475.4" y="184.1" class="st6" width="9.5" height="3.6"/>
			<rect id="XMLID_1085_" x="488.7" y="184.1" class="st6" width="9.5" height="3.6"/>
		</g>
	</g>
</g>
<rect id="XMLID_484_" x="1" y="289.2" class="st9" width="1000" height="63.9"/>
<g id="XMLID_85_">
	<rect id="XMLID_78_" x="1" y="353.1" class="st10" width="1000" height="65.4"/>
	<g id="XMLID_483_">
		<rect id="XMLID_80_" x="1" y="377.5" class="st2" width="29.3" height="5"/>
		<rect id="XMLID_93_" x="43.1" y="377.5" class="st2" width="29.3" height="5"/>
		<rect id="XMLID_94_" x="85.2" y="377.5" class="st2" width="29.3" height="5"/>
		<rect id="XMLID_96_" x="127.3" y="377.5" class="st2" width="29.3" height="5"/>
		<rect id="XMLID_111_" x="169.4" y="377.5" class="st2" width="29.3" height="5"/>
		<rect id="XMLID_128_" x="211.5" y="377.5" class="st2" width="29.3" height="5"/>
		<rect id="XMLID_492_" x="253.6" y="377.5" class="st2" width="29.3" height="5"/>
		<rect id="XMLID_491_" x="295.7" y="377.5" class="st2" width="29.3" height="5"/>
		<rect id="XMLID_490_" x="337.8" y="377.5" class="st2" width="29.3" height="5"/>
		<rect id="XMLID_489_" x="379.8" y="377.5" class="st2" width="29.3" height="5"/>
		<rect id="XMLID_488_" x="421.9" y="377.5" class="st2" width="29.3" height="5"/>
		<rect id="XMLID_487_" x="464" y="377.5" class="st2" width="29.3" height="5"/>
		<rect id="XMLID_501_" x="506.1" y="377.5" class="st2" width="29.3" height="5"/>
		<rect id="XMLID_498_" x="548.2" y="377.5" class="st2" width="29.3" height="5"/>
		<rect id="XMLID_497_" x="590.3" y="377.5" class="st2" width="29.3" height="5"/>
		<rect id="XMLID_496_" x="632.4" y="377.5" class="st2" width="29.3" height="5"/>
		<rect id="XMLID_495_" x="674.5" y="377.5" class="st2" width="29.3" height="5"/>
		<rect id="XMLID_494_" x="716.6" y="377.5" class="st2" width="29.3" height="5"/>
		<rect id="XMLID_512_" x="758.7" y="377.5" class="st2" width="29.3" height="5"/>
		<rect id="XMLID_511_" x="800.8" y="377.5" class="st2" width="29.3" height="5"/>
		<rect id="XMLID_510_" x="842.8" y="377.5" class="st2" width="29.3" height="5"/>
		<rect id="XMLID_509_" x="884.9" y="377.5" class="st2" width="29.3" height="5"/>
		<rect id="XMLID_507_" x="927" y="377.5" class="st2" width="29.3" height="5"/>
		<rect id="XMLID_506_" x="969.1" y="377.5" class="st2" width="29.3" height="5"/>
	</g>
</g>
<image style="overflow:visible;" width="1065" height="1300" id="XMLID_1_" xlink:href="DB53DDC6.jpg"  transform="matrix(1 0 0 1 -7692 -7798)">
</image>
<image style="overflow:visible;" width="1065" height="1300" id="XMLID_2_" xlink:href="DB53DDC5.jpg"  transform="matrix(1 0 0 1 -7692 -7798)">
</image>
<g id="XMLID_485_">
	<rect id="XMLID_604_" x="17.6" y="178.4" class="st7" width="56.8" height="110.5"/>
	<g id="XMLID_594_">
		<g id="XMLID_165_">
			<rect id="XMLID_169_" x="25.5" y="252.3" class="st6" width="7.9" height="3.6"/>
			<rect id="XMLID_168_" x="36.5" y="252.3" class="st6" width="7.9" height="3.6"/>
			<rect id="XMLID_167_" x="47.6" y="252.3" class="st6" width="7.9" height="3.6"/>
			<rect id="XMLID_166_" x="58.6" y="252.3" class="st6" width="7.9" height="3.6"/>
		</g>
	</g>
	<g id="XMLID_486_">
		<g id="XMLID_142_">
			<rect id="XMLID_163_" x="25.5" y="260.7" class="st6" width="7.9" height="3.6"/>
			<rect id="XMLID_162_" x="36.5" y="260.7" class="st6" width="7.9" height="3.6"/>
			<rect id="XMLID_144_" x="47.6" y="260.7" class="st6" width="7.9" height="3.6"/>
			<rect id="XMLID_143_" x="58.6" y="260.7" class="st6" width="7.9" height="3.6"/>
		</g>
	</g>
	<g id="XMLID_599_">
		<g id="XMLID_136_">
			<rect id="XMLID_140_" x="25.5" y="242.8" class="st6" width="7.9" height="3.5"/>
			<rect id="XMLID_139_" x="36.5" y="242.8" class="st6" width="7.9" height="3.5"/>
			<rect id="XMLID_138_" x="47.6" y="242.8" class="st6" width="7.9" height="3.5"/>
			<rect id="XMLID_137_" x="58.6" y="242.8" class="st6" width="7.9" height="3.5"/>
		</g>
	</g>
	<g id="XMLID_493_">
		<g id="XMLID_130_">
			<rect id="XMLID_134_" x="25.5" y="233.2" class="st6" width="7.9" height="3.5"/>
			<rect id="XMLID_133_" x="36.5" y="233.2" class="st6" width="7.9" height="3.5"/>
			<rect id="XMLID_132_" x="47.6" y="233.2" class="st6" width="7.9" height="3.5"/>
			<rect id="XMLID_131_" x="58.6" y="233.2" class="st6" width="7.9" height="3.5"/>
		</g>
	</g>
	<g id="XMLID_520_">
		<g id="XMLID_170_">
			<rect id="XMLID_174_" x="25.5" y="223.7" class="st6" width="7.9" height="3.5"/>
			<rect id="XMLID_173_" x="36.5" y="223.7" class="st6" width="7.9" height="3.5"/>
			<rect id="XMLID_172_" x="47.6" y="223.7" class="st6" width="7.9" height="3.5"/>
			<rect id="XMLID_171_" x="58.6" y="223.7" class="st6" width="7.9" height="3.5"/>
		</g>
	</g>
	<g id="XMLID_565_">
		<g id="XMLID_176_">
			<rect id="XMLID_180_" x="25.5" y="214.1" class="st6" width="7.9" height="3.5"/>
			<rect id="XMLID_179_" x="36.5" y="214.1" class="st6" width="7.9" height="3.5"/>
			<rect id="XMLID_178_" x="47.6" y="214.1" class="st6" width="7.9" height="3.5"/>
			<rect id="XMLID_177_" x="58.6" y="214.1" class="st6" width="7.9" height="3.5"/>
		</g>
	</g>
	<g id="XMLID_572_">
		<g id="XMLID_182_">
			<rect id="XMLID_274_" x="25.5" y="204.6" class="st6" width="7.9" height="3.5"/>
			<rect id="XMLID_268_" x="36.5" y="204.6" class="st6" width="7.9" height="3.5"/>
			<rect id="XMLID_218_" x="47.6" y="204.6" class="st6" width="7.9" height="3.5"/>
			<rect id="XMLID_212_" x="58.6" y="204.6" class="st6" width="7.9" height="3.5"/>
		</g>
	</g>
	<g id="XMLID_577_">
		<g id="XMLID_286_">
			<rect id="XMLID_300_" x="25.5" y="195.1" class="st6" width="7.9" height="3.5"/>
			<rect id="XMLID_299_" x="36.5" y="195.1" class="st6" width="7.9" height="3.5"/>
			<rect id="XMLID_298_" x="47.6" y="195.1" class="st6" width="7.9" height="3.5"/>
			<rect id="XMLID_292_" x="58.6" y="195.1" class="st6" width="7.9" height="3.5"/>
		</g>
	</g>
	<g id="XMLID_582_">
		<g id="XMLID_301_">
			<rect id="XMLID_305_" x="25.5" y="185.5" class="st6" width="7.9" height="3.5"/>
			<rect id="XMLID_304_" x="36.5" y="185.5" class="st6" width="7.9" height="3.5"/>
			<rect id="XMLID_303_" x="47.6" y="185.5" class="st6" width="7.9" height="3.5"/>
			<rect id="XMLID_302_" x="58.6" y="185.5" class="st6" width="7.9" height="3.5"/>
		</g>
	</g>
</g>
<rect id="XMLID_611_" x="88.5" y="188.3" class="st5" width="25.8" height="7.1"/>
<path id="XMLID_914_" class="st6" d="M258.5,195c-0.3-8-7-14.7-15.3-14.7s-15,6.7-15.3,14.7H258.5z"/>
</svg>
