<?xml version="1.0" encoding="utf-8"?>
<!-- Generator: Adobe Illustrator 19.0.0, SVG Export Plug-In . SVG Version: 6.00 Build 0)  -->
<svg version="1.1" id="Layer_1" xmlns="http://www.w3.org/2000/svg" xmlns:xlink="http://www.w3.org/1999/xlink" x="0px" y="0px" width="400" height ="400"
	 viewBox="0 0 89.3 82" style="enable-background:new 0 0 89.3 82;" xml:space="preserve">
<style type="text/css">
	.st0{fill:#95A5A6;}
	.st1{fill:#7F8C8D;}
	.st2{fill:#FA6800;}
	.st3{opacity:8.000000e-002;}
	.st4{fill:#546E7A;}
	.st5{fill:#FFFFFF;}
	.st6{font-family:'ArialMT';}
	.st7{font-size:7.9133px;}
</style>
<g id="XMLID_6_">
	<polygon id="XMLID_90_" class="st0" points="83.7,77.4 4.3,77.4 17.2,71.5 70.8,71.5 	"/>
	<rect id="XMLID_81_" x="4.3" y="77.4" class="st1" width="79.4" height="3.1"/>
	<rect id="XMLID_19_" x="10.8" y="32.9" class="st2" width="65.7" height="42.5"/>
	<rect id="XMLID_39_" x="10.8" y="32.9" class="st3" width="65.7" height="14.8"/>
	<g id="XMLID_17_">
		<rect id="XMLID_37_" x="14.6" y="58.3" class="st0" width="16.8" height="17.1"/>
		<rect id="XMLID_38_" x="14.6" y="58.3" class="st4" width="16.8" height="1.9"/>
		<rect id="XMLID_40_" x="14.6" y="62.3" class="st4" width="16.8" height="1.9"/>
		<rect id="XMLID_18_" x="14.5" y="66.2" class="st4" width="16.8" height="1.9"/>
		<rect id="XMLID_143_" x="14.6" y="73.5" class="st4" width="16.8" height="1.9"/>
		<rect id="XMLID_149_" x="14.6" y="69.8" class="st4" width="16.8" height="1.9"/>
	</g>
	<g id="XMLID_47_">
		<rect id="XMLID_179_" x="35.4" y="58.3" class="st0" width="16.8" height="17.1"/>
		<rect id="XMLID_176_" x="35.4" y="58.3" class="st4" width="16.8" height="1.9"/>
		<rect id="XMLID_173_" x="35.4" y="62.3" class="st4" width="16.8" height="1.9"/>
		<rect id="XMLID_16_" x="35.4" y="66.2" class="st4" width="16.8" height="1.9"/>
		<rect id="XMLID_15_" x="35.4" y="73.5" class="st4" width="16.8" height="1.9"/>
		<rect id="XMLID_14_" x="35.4" y="69.8" class="st4" width="16.8" height="1.9"/>
	</g>
	<g id="XMLID_51_">
		<rect id="XMLID_198_" x="56.3" y="58.3" class="st0" width="16.8" height="17.1"/>
		<rect id="XMLID_195_" x="56.3" y="58.3" class="st4" width="16.8" height="1.9"/>
		<rect id="XMLID_192_" x="56.3" y="62.3" class="st4" width="16.8" height="1.9"/>
		<rect id="XMLID_13_" x="56.3" y="66.2" class="st4" width="16.8" height="1.9"/>
		<rect id="XMLID_12_" x="56.3" y="73.5" class="st4" width="16.8" height="1.9"/>
		<rect id="XMLID_11_" x="56.3" y="69.8" class="st4" width="16.8" height="1.9"/>
	</g>
	<g id="XMLID_10_">
		<polygon id="XMLID_23_" class="st0" points="88.6,37.7 77.3,32.3 44.8,26.9 11.5,32.3 1.1,37.7 45.1,31.6 		"/>
	</g>
	<polygon id="XMLID_42_" class="st1" points="88.3,37.7 45.3,31.7 45.3,31.6 45,31.6 44.7,31.6 44.7,31.7 0.9,37.8 1.4,40.8 
		45,34.7 87.9,40.7 	"/>
</g>
<g id="XMLID_1499_">
	<rect id="XMLID_1519_" x="22.7" y="21.3" class="st5" width="41.3" height="10.3"/>
	<g id="XMLID_1501_">
		<text id="XMLID_123_" transform="matrix(1 0 0 1 26.7319 29.418)" class="st2 st6 st7">Distributor</text>
	</g>
</g>
</svg>
