<?xml version="1.0" encoding="utf-8"?>
<!-- Generator: Adobe Illustrator 19.0.0, SVG Export Plug-In . SVG Version: 6.00 Build 0)  -->
<svg version="1.1" id="Layer_1" xmlns="http://www.w3.org/2000/svg" xmlns:xlink="http://www.w3.org/1999/xlink" x="0px" y="0px" width="400" height ="400"
	 viewBox="0 0 89.3 82" style="enable-background:new 0 0 89.3 82;" xml:space="preserve">
<style type="text/css">
	.st0{fill:#7F8C8D;}
	.st1{fill:#95A5A6;}
	.st2{fill:#FA6800;}
	.st3{fill:#546E7A;}
	.st4{opacity:8.000000e-002;}
	.st5{fill:#FFFFFF;}
	.st6{font-family:'ArialMT';}
	.st7{font-size:8.4063px;}
</style>
<g id="XMLID_20_">
	<g id="XMLID_32_">
		<g id="XMLID_13_">
			<rect id="XMLID_15_" x="3.8" y="78.2" class="st0" width="84.4" height="3.2"/>
			<polygon id="XMLID_14_" class="st1" points="88.1,78.2 3.8,78.2 17.5,71.9 74.5,71.9 			"/>
		</g>
		<rect id="XMLID_12_" x="12.4" y="37.7" class="st2" width="64" height="39"/>
		<g id="XMLID_10_">
			<rect id="XMLID_210_" x="1.2" y="36" class="st0" width="84.4" height="3.2"/>
			<polygon id="XMLID_11_" class="st1" points="85.6,36 1.2,36 14.9,29.8 71.9,29.8 			"/>
		</g>
		<g id="XMLID_217_">
			<path id="XMLID_215_" class="st0" d="M30,32.3c0,0-0.7,1-3.6,1s-3.5-1-3.5-1l1.5-28.9h4.1L30,32.3z"/>
			<ellipse id="XMLID_216_" class="st1" cx="26.4" cy="3.4" rx="2" ry="0.3"/>
		</g>
		<g id="XMLID_219_">
			<path id="XMLID_224_" class="st0" d="M46.9,32.6c0,0-0.7,1-3.6,1c-2.9,0-3.5-1-3.5-1l1.5-28.9h4.1L46.9,32.6z"/>
			<ellipse id="XMLID_220_" class="st1" cx="43.2" cy="3.8" rx="2" ry="0.3"/>
		</g>
		<g id="XMLID_232_">
			<path id="XMLID_236_" class="st0" d="M62.8,32.5c0,0-0.7,1-3.6,1c-2.9,0-3.5-1-3.5-1l1.5-28.9h4.1L62.8,32.5z"/>
			<ellipse id="XMLID_233_" class="st1" cx="59.1" cy="3.6" rx="2" ry="0.3"/>
		</g>
		<rect id="XMLID_218_" x="16.2" y="42.6" class="st0" width="16.3" height="5.8"/>
		<rect id="XMLID_222_" x="36.2" y="42.6" class="st0" width="16.3" height="5.8"/>
		<rect id="XMLID_226_" x="56.3" y="42.6" class="st0" width="16.3" height="5.8"/>
		<g id="XMLID_230_">
			<rect id="XMLID_258_" x="27" y="58.3" class="st1" width="34.8" height="18.2"/>
			<rect id="XMLID_255_" x="27" y="58.3" class="st3" width="34.8" height="2"/>
			<rect id="XMLID_252_" x="27" y="62.5" class="st3" width="34.8" height="2"/>
			<rect id="XMLID_249_" x="27" y="66.6" class="st3" width="34.8" height="2"/>
			<rect id="XMLID_243_" x="27" y="74.4" class="st3" width="34.8" height="2"/>
			<rect id="XMLID_239_" x="27" y="70.5" class="st3" width="34.8" height="2"/>
		</g>
		<rect id="XMLID_6_" x="12.5" y="39.3" class="st4" width="63.9" height="14.4"/>
	</g>
	<g id="XMLID_1504_">
		<rect id="XMLID_1556_" x="27.7" y="23.4" class="st5" width="33.4" height="10.9"/>
		<g id="XMLID_1505_">
			<text id="XMLID_105_" transform="matrix(1 0 0 1 31.8714 32.0246)" class="st2 st6 st7">Factory</text>
		</g>
	</g>
</g>
</svg>
