<?xml version="1.0" encoding="utf-8"?>
<!-- Generator: Adobe Illustrator 19.0.0, SVG Export Plug-In . SVG Version: 6.00 Build 0)  -->
<svg version="1.1" id="Layer_1" xmlns="http://www.w3.org/2000/svg" xmlns:xlink="http://www.w3.org/1999/xlink" x="0px" y="0px" width="400" height ="400"
	 viewBox="0 0 27.4 18.9" style="enable-background:new 0 0 27.4 18.9;" xml:space="preserve">
<style type="text/css">
	.st0{fill:#FFFFFF;stroke:#999999;stroke-miterlimit:10;}
	.st1{fill:#666666;}
</style>
<g id="XMLID_1329_">
	<g id="XMLID_118_">
		<path id="XMLID_36_" class="st0" d="M22,2.9L11.6,0.8l-4,10.9l0,0l-1.2,3.1l8.1,3.2c2.1,0.4,3.1-2.9,3.1-2.9l0,0L22,2.9z"/>
		<path id="XMLID_34_" class="st0" d="M14.6,18.1l-8.5-3.5c0,0-1-0.7-1.2-1.9S5,10.7,5,10.7l7.7,3.1c0,0-0.3,1.2,0.3,2.6
			C13.7,17.8,14.6,18.1,14.6,18.1z"/>
	</g>
	<g id="XMLID_1328_">
		<path id="XMLID_33_" class="st1" d="M17.7,6.7l-3.2-0.9c-0.2-0.1-0.3-0.3-0.3-0.5v0c0.1-0.2,0.3-0.3,0.5-0.3l3.2,0.9
			c0.2,0.1,0.3,0.3,0.3,0.5v0C18.1,6.6,17.9,6.8,17.7,6.7z"/>
		<path id="XMLID_26_" class="st1" d="M16.5,9.7l-3.1-1.1c-0.2-0.1-0.3-0.3-0.2-0.5l0,0c0.1-0.2,0.3-0.3,0.5-0.2L16.8,9
			C17,9,17.1,9.3,17,9.5v0C17,9.7,16.7,9.8,16.5,9.7z"/>
		<path id="XMLID_1327_" class="st1" d="M15.5,12.4l-3.1-1.1c-0.2-0.1-0.3-0.3-0.2-0.5v0c0.1-0.2,0.3-0.3,0.5-0.2l3.1,1.1
			c0.2,0.1,0.3,0.3,0.2,0.5v0C16,12.4,15.7,12.5,15.5,12.4z"/>
		<circle id="XMLID_116_" class="st1" cx="13" cy="5.1" r="0.5"/>
		<circle id="XMLID_20_" class="st1" cx="11.9" cy="7.7" r="0.5"/>
		<circle id="XMLID_607_" class="st1" cx="10.7" cy="10.4" r="0.5"/>
	</g>
</g>
</svg>
