<?xml version="1.0" encoding="utf-8"?>
<!-- Generator: Adobe Illustrator 19.0.0, SVG Export Plug-In . SVG Version: 6.00 Build 0)  -->
<svg version="1.1" id="Layer_1" xmlns="http://www.w3.org/2000/svg" xmlns:xlink="http://www.w3.org/1999/xlink" x="0px" y="0px" width="400" height ="400"
	 viewBox="0 0 235 273" style="enable-background:new 0 0 235 273;" xml:space="preserve">
<style type="text/css">
	.st0{fill:#FCFAE8;}
	.st1{fill:none;stroke:#B5C8C6;stroke-miterlimit:10;}
	.st2{fill:none;stroke:#B7CAC8;stroke-miterlimit:10;}
	.st3{fill:none;stroke:#ED1C24;stroke-miterlimit:10;}
</style>
<g id="XMLID_349_">
	<g id="XMLID_508_">

			<image style="overflow:visible;opacity:0.6;" width="214" height="267" id="XMLID_60_" xlink:href="E7523AB3.png"  transform="matrix(1 0 0 1 14 4.5)">
		</image>
		<g id="XMLID_36_">
			<g id="XMLID_52_">
				<path id="XMLID_55_" class="st0" d="M66,18L66,18C66,18,66,18,66,18z"/>
				<path id="XMLID_54_" class="st0" d="M79.1,16.7C79.1,16.7,79.1,16.7,79.1,16.7C79.5,16.3,79.1,16.7,79.1,16.7z"/>
				<path id="XMLID_53_" class="st0" d="M206,19c-1-0.7-1.5-1.2-1.9-1.2c-0.4,0-1.1,0-1.1,0v2.8c2,0.2,3,1.6,3,3.2
					c0,1.8-1.5,3.3-3.3,3.3c-1.9,0-3.4-1.5-3.4-3.3c0-1.6,0.2-2.9,1.7-3.2c0,0-0.9-0.1-0.9-0.1v-3c0,0,0.8,0.8-0.2,1
					c-1,0.2-0.5,0.1-0.9-0.1c-0.3-0.2-0.5,0.3-1.1,0.2c-0.5-0.1-0.6-0.4-0.8-0.5c-0.2-0.1-1.9,0.2-1.9,0.2s-0.7,0.6-1.1,0.3
					c-0.4-0.4-1-0.7-1-0.7v2.6c0,0.4,2.2,1.7,2.2,3.1c0,1.8-1.6,3.3-3.5,3.3c-1.9,0-3.1-1.5-3.1-3.3c0-1.7,1.3-3.1,3.3-3.3v-2.3
					c0,0-2.3-0.1-3.6-0.2c-1.4,0-0.8,0.7-2.3,0.5s-2.3-0.5-2.3-0.5l-1.8,0.3l0,2.2c1.7,0.2,3,1.6,3,3.3c0,1.8-1.5,3.3-3.4,3.3
					c-1.9,0-3.4-1.5-3.4-3.3c0-1.5,1-2.7,2.4-3.1l0.2-2.7c0,0-1.4,0.3-2.6,0.2c-1.2-0.1-1.3-0.2-1.3-0.2s-2.3,0.2-2.8,0
					c-0.6-0.2-0.4-1.2-1.1-1.1c-0.7,0.1-0.7,0.2-0.9,0.5c-0.2,0.3-0.5,0.4-0.5,0.4l0,2.8c1.7,0.2,3,1.6,3,3.3c0,1.8-1.5,3.3-3.4,3.3
					c-1.9,0-3.4-1.5-3.4-3.3c0-1.5,1-2.7,2.4-3.1l0.1-2.7c0,0-1.2,0.3-1.9-0.1c-0.7-0.4-4.1-0.3-4.8-0.5c-0.7-0.2-0.4-0.5-0.9-0.6
					c-0.6,0-1.6-0.1-1.6-0.1l-0.1,3.9c1.5,0.4,2.6,1.6,2.6,3.2c0,1.8-1.5,3.3-3.4,3.3c-1.9,0-3.6-1.5-3.6-3.3c0-1.6,1.4-2.9,2.4-3.2
					v-4.2c0,0-0.5,0.6-1.6,0.7c-1.1,0.1-4.5,1.1-5.2,0.5c-0.7-0.7-1.7-0.1-1.7-0.1l0.1,3.2c1.5,0.4,2.6,1.6,2.6,3.2
					c0,1.8-1.5,3.3-3.4,3.3c-1.9,0-3.4-1.5-3.4-3.3c0-1.6,1.2-3,2.8-3.2l0.1-3c0,0-1,0.7-3.8,0.3c-2.8-0.4-3.8,0-3.8,0
					s-1.5-0.2-1.6-0.1c0,0,0,1.6,0,3c1.5,0.3,2.6,1.6,2.6,3.2c0,1.8-1.5,3.3-3.4,3.3c-1.9,0-3.4-1.5-3.4-3.3c0-1.7,1.3-3,2.9-3.3
					l0.1-3c0,0-1.5-0.4-3.6,0.8c-2.1,1.2-4.7,0.7-4.7,0.7l0,1.6c1.6,0.3,2.7,1.6,2.7,3.2c0,1.8-1.5,3.3-3.4,3.3
					c-1.9,0-3.4-1.5-3.4-3.3c0-1.6,1.1-2.9,2.7-3.2l0-1.7l-9.1,0l0,1.7c1.6,0.3,2.7,1.6,2.7,3.2c0,1.8-1.5,3.3-3.4,3.3
					c-1.9,0-3.4-1.5-3.4-3.3c0-1.5,1.1-2.8,2.5-3.2l0-2.7c0,0-2.6,0.5-4.1-0.3c-1.5-0.8-2.9-1.4-3.7-0.9s-2.9,1-2.9,1v2.8
					c2,0.2,3.7,1.6,3.7,3.3c0,1.8-1.1,3.3-3,3.3c-1.9,0-3.2-1.5-3.2-3.3c0-1.5,1.1-2.7,2.5-3.1l0.2-3c0,0-1.9-0.2-2.9,0.1
					c-1,0.3-1.3,1.6-2.2,1.8c-0.9,0.2-2.7,0-3,0c-0.3,0-1.1,0-1.1,0l0,1.3c1.4,0.4,2.4,1.7,2.4,3.1c0,1.8-1.5,3.3-3.4,3.3
					c-1.9,0-3.8-1.5-3.8-3.3c0-1.8,0.8-3.2,2.8-3.3v-2.4c0,0-3.6,0.9-4.7-0.4s-1.4-1-1.9-1.1c-0.5,0-2-0.2-2-0.2l0.1,4.1
					c1.7,0.2,3,1.6,3,3.3c0,1.8-1.5,3.3-3.4,3.3c-1.9,0-3.4-1.5-3.4-3.3c0-1.4,0.9-2.6,2.3-3.1l0.1-4.6c0,0-1.2,0-4.1,0.4
					c-2.5,0.3-3.7,0.2-4,0.2c0,0-0.1,0.1-0.2,0.2c-0.6,0.7-0.9,1-0.9,1l0,2.8c1.4,0.4,2.4,1.7,2.4,3.1c0,1.8-1.5,3.3-3.4,3.3
					c-1.9,0-3.4-1.5-3.4-3.3c0-1.7,1.3-3.1,3-3.3l0.1-3c0,0-2.7,0-3.9,0c-1.2,0-3.1,0.4-3.8,0.5c-0.7,0-1.6,0-1.6,0l0,2.6
					c1.7,0.1,3.1,1.5,3.1,3.3c0,1.8-1.5,3.3-3.4,3.3c-1.9,0-3.4-1.5-3.4-3.3c0-1.5,1-2.7,2.4-3.1l0-2.8c0,0.1,0,0.4-0.5-0.2
					c-0.5-0.6-0.8-0.5-0.8-0.5s-3.1-0.5-4,0c-1,0.5-2.2,0.5-2.4,0.5c-0.2,0-0.9-0.3-0.9-0.3l-0.1-0.3l-0.5-0.2l0,3.7
					c1.4,0.4,2.5,1.7,2.5,3.2c0,1.8-1.5,3.3-3.4,3.3c-1.9,0-3.4-1.5-3.4-3.3c0-1.6,1.2-3,2.8-3.2l0.1-3.6c0,0-1.6,0.6-3.4-0.1
					c-1.8-0.7-3.6,0.3-4.3,0.3s-1.4-0.4-1.4-0.4l-0.1,3.8c1.5,0.3,2.7,1.6,2.7,3.2c0,1.8-1.5,3.3-3.4,3.3c-1.9,0-3.4-1.5-3.4-3.3
					c0-1.6,1.2-3,2.9-3.2l-0.1-4c0,0-0.3,0-0.5,0c-0.2,0.1,0.4,0.8-0.8,0.9c-1.2,0.2-3.9-0.4-4.6-0.6c-0.7-0.3-0.5,0-0.7-0.3
					c-0.1-0.2-0.9-0.7-1.3-0.8C37,15.8,36.1,16,36.1,16l0,4.7c1.5,0.3,2.7,1.6,2.7,3.2c0,1.8-1.5,3.3-3.4,3.3
					c-1.9,0-3.4-1.5-3.4-3.3c0-1.6,1.2-3,2.8-3.2l-0.1-4.8c0,0-1.9-0.4-3.4,1.1s-1.8,1.9-3.3,2.2c-1.5,0.3-2.9,0.2-2.9,0.2v233.1
					h184V19.4C209,19.4,207,19.7,206,19z"/>
			</g>
		</g>
	</g>
	<g id="XMLID_358_">
		<line id="XMLID_505_" class="st1" x1="25" y1="72" x2="209.2" y2="72"/>
		<line id="XMLID_502_" class="st1" x1="25" y1="95.8" x2="209.2" y2="95.8"/>
		<line id="XMLID_463_" class="st1" x1="25" y1="119.6" x2="209.2" y2="119.6"/>
		<line id="XMLID_459_" class="st1" x1="25" y1="143.4" x2="209.2" y2="143.4"/>
		<line id="XMLID_455_" class="st1" x1="25" y1="167.2" x2="209.2" y2="167.2"/>
		<line id="XMLID_449_" class="st1" x1="25" y1="191" x2="209.2" y2="191"/>
		<line id="XMLID_446_" class="st2" x1="25" y1="60" x2="209.2" y2="60"/>
		<line id="XMLID_442_" class="st2" x1="25" y1="83.9" x2="209.2" y2="83.9"/>
		<line id="XMLID_438_" class="st2" x1="25" y1="107.7" x2="209.2" y2="107.7"/>
		<line id="XMLID_402_" class="st2" x1="25" y1="131.5" x2="209.2" y2="131.5"/>
		<line id="XMLID_398_" class="st2" x1="25" y1="155.3" x2="209.2" y2="155.3"/>
		<line id="XMLID_390_" class="st2" x1="25" y1="179.1" x2="209.2" y2="179.1"/>
		<line id="XMLID_386_" class="st2" x1="25" y1="214.8" x2="209.2" y2="214.8"/>
		<line id="XMLID_377_" class="st2" x1="25.3" y1="202.9" x2="209.5" y2="202.9"/>
		<line id="XMLID_367_" class="st2" x1="25" y1="226.7" x2="209.2" y2="226.7"/>
		<g id="XMLID_360_">
		</g>
	</g>
	<line id="XMLID_353_" class="st3" x1="44.5" y1="26.5" x2="44.5" y2="252.5"/>
	<line id="XMLID_352_" class="st3" x1="46.5" y1="252.5" x2="46.5" y2="26.5"/>
</g>
</svg>
