<?xml version="1.0" encoding="utf-8"?>
<!-- Generator: Adobe Illustrator 19.0.0, SVG Export Plug-In . SVG Version: 6.00 Build 0)  -->
<svg version="1.1" id="Layer_1" xmlns="http://www.w3.org/2000/svg" xmlns:xlink="http://www.w3.org/1999/xlink" x="0px" y="0px" width="400" height ="400"
	 viewBox="0 0 89.3 82" style="enable-background:new 0 0 89.3 82;" xml:space="preserve">
<style type="text/css">
	.st0{fill:#95A5A6;}
	.st1{fill:#7F8C8D;}
	.st2{fill:#FA6800;}
	.st3{fill:#ECF0F1;}
	.st4{fill:#3498DB;}
	.st5{opacity:8.000000e-002;}
	.st6{fill:#FBD734;}
	.st7{fill:#FFFFFF;}
	.st8{font-family:'ArialMT';}
	.st9{font-size:10.9433px;}
</style>
<g id="XMLID_101_">
	<polygon id="XMLID_49_" class="st0" points="88.4,76.8 0.8,76.8 15.1,68.9 74.2,68.9 	"/>
	<rect id="XMLID_61_" x="0.8" y="76.8" class="st1" width="87.5" height="4.1"/>
	<rect id="XMLID_16_" x="10.6" y="35.7" class="st2" width="68.2" height="39.2"/>
	<rect id="XMLID_26_" x="17.3" y="40.4" class="st3" width="30.7" height="30.7"/>
	<rect id="XMLID_24_" x="20.6" y="44" class="st4" width="10.4" height="10.2"/>
	<rect id="XMLID_27_" x="34.4" y="44" class="st4" width="10.4" height="10.2"/>
	<rect id="XMLID_28_" x="34.4" y="57.7" class="st4" width="10.4" height="10.2"/>
	<rect id="XMLID_29_" x="20.6" y="57.7" class="st4" width="10.4" height="10.2"/>
	<rect id="XMLID_43_" x="51.5" y="40.6" class="st3" width="20.5" height="34.2"/>
	<rect id="XMLID_31_" x="54.9" y="44" class="st4" width="13.8" height="13.8"/>
	<rect id="XMLID_46_" x="54.9" y="61" class="st4" width="13.8" height="13.8"/>
	<rect id="XMLID_30_" x="10.5" y="35.7" class="st5" width="68.2" height="11.7"/>
	<g id="XMLID_14_">
		<path id="XMLID_11_" class="st6" d="M10.4,16.7L3.7,30.3v6.1c0,0,0.7,4.2,5,4.2s5.3-4.2,5.3-4.2l0-6.1l6.7-13.7H10.4z"/>
		<path id="XMLID_12_" class="st3" d="M30.9,16.8l-6.8,13.5v6.2c0,0-1.1,4.2-5.4,4.2s-4.8-4.2-4.8-4.2v-6.1l6.7-13.7L30.9,16.8z"/>
		<path id="XMLID_13_" class="st6" d="M37.8,16.8l-3.4,13.5v6.2c0,0-0.5,4.2-5.1,4.2s-5.1-4.2-5.1-4.2v-6.1l6.8-13.6L37.8,16.8z"/>
		<path id="XMLID_15_" class="st3" d="M45,16.8v19.7c0,0-0.7,4.1-5.5,4.1S34,36.5,34,36.5v-6.1l3.8-13.5L45,16.8z"/>
		<path id="XMLID_25_" class="st3" d="M78.9,16.7l6.7,13.7v6.1c0,0-0.7,4.2-5,4.2s-5.3-4.2-5.3-4.2l0-6.1l-6.7-13.7H78.9z"/>
		<path id="XMLID_22_" class="st6" d="M58.4,16.8l6.8,13.5v6.2c0,0,1.1,4.2,5.4,4.2s4.8-4.2,4.8-4.2v-6.1l-6.7-13.7L58.4,16.8z"/>
		<path id="XMLID_19_" class="st3" d="M51.5,16.8l3.4,13.5v6.2c0,0,0.5,4.2,5.1,4.2c4.6,0,5.1-4.2,5.1-4.2v-6.1l-6.8-13.6L51.5,16.8
			z"/>
		<path id="XMLID_17_" class="st6" d="M44.6,16.8v19.7c0,0,0.3,4.1,5.1,4.1s5.1-4.1,5.1-4.1v-6.1l-3.4-13.5L44.6,16.8z"/>
	</g>
	<polygon id="XMLID_10_" class="st0" points="82,15.9 7.2,15.9 19.4,9.1 69.9,9.1 	"/>
	<rect id="XMLID_6_" x="7.2" y="15.9" class="st1" width="74.8" height="3.5"/>
</g>
<g id="XMLID_1486_">
	<rect id="XMLID_1483_" x="20.4" y="0.5" class="st7" width="50.5" height="14.2"/>
	<g id="XMLID_1466_">
		<text id="XMLID_91_" transform="matrix(1 0 0 1 23.1451 11.7261)" class="st2 st8 st9">Beer Store</text>
	</g>
</g>
</svg>
