<?xml version="1.0" encoding="utf-8"?>
<!-- Generator: Adobe Illustrator 19.0.0, SVG Export Plug-In . SVG Version: 6.00 Build 0)  -->
<svg version="1.1" id="Layer_1" xmlns="http://www.w3.org/2000/svg" xmlns:xlink="http://www.w3.org/1999/xlink" x="0px" y="0px" width="400" height ="400"
	 viewBox="0 0 27.4 18.9" style="enable-background:new 0 0 27.4 18.9;" xml:space="preserve">
<style type="text/css">
	.st0{fill:#FA6800;}
	.st1{fill:#445A64;}
	.st2{fill:#E54A18;}
	.st3{fill:#FBD734;}
	.st4{fill:#28B5F5;}
	.st5{fill:#FFFFFF;}
	.st6{opacity:0.26;fill:#FFFFFF;}
	.st7{fill:#AFBDC3;}
	.st8{opacity:8.000000e-002;fill:#FFFFFF;}
	.st9{fill:#FFFFFF;stroke:#754C24;stroke-linejoin:round;stroke-miterlimit:10;}
	.st10{fill:#754C24;}
</style>
<g id="XMLID_33_">
	<g id="XMLID_36_">
		<rect id="XMLID_1563_" x="11.2" y="0.7" class="st0" width="15.6" height="12.4"/>
		<rect id="XMLID_1558_" x="11.2" y="13.1" class="st1" width="15.6" height="3.2"/>
		<path id="XMLID_1464_" class="st2" d="M26.8,13.7h-0.6c-0.6,0-1.1,0.4-1.1,1c0,0.6,0.5,1,1.1,1h0.6V13.7z"/>
		<rect id="XMLID_1461_" x="11.2" y="14.8" class="st1" width="0.1" height="0"/>
		<path id="XMLID_1458_" class="st3" d="M11.2,3H7.6c0,0-0.6,0.1-1.3,0.6s-1,0.9-1,0.9L2.2,9.6c0,0-1.6,1.3-1.6,1.7
			s-0.1,3.7-0.1,3.7s0,0.3,0.4,0.7c0.4,0.4,0.7,0.4,0.7,0.4h2.8l6.8,0L11.2,3z"/>
		<path id="XMLID_1455_" class="st3" d="M11.2,3H7.6c0,0-0.6,0.1-1.3,0.6c-0.7,0.5-1,0.9-1,0.9L2.2,9.6c0,0-1.6,1.3-1.6,1.7
			s-0.1,3.7-0.1,3.7s0,0.3,0.4,0.7c0.4,0.4,0.7,0.4,0.7,0.4h2.8l6.8,0L11.2,3z"/>
		<polygon id="XMLID_1452_" class="st4" points="5.8,5.6 3.8,8.5 3.8,10 4.2,10.5 9.4,10.5 9.5,10.2 9.5,5.9 9.3,5.6 		"/>
		<path id="XMLID_1449_" class="st5" d="M2.1,15v-2.2c0-0.3-0.2-0.5-0.5-0.5h-1c0,1.1,0,2.9,0,2.9s0,0.2,0.1,0.4h0.9
			C1.9,15.5,2.1,15.3,2.1,15z"/>
		<path id="XMLID_1446_" class="st1" d="M2.4,13.9H0.5c0,0.7,0,1.3,0,1.3s0,0.3,0.4,0.7c0.4,0.4,0.7,0.4,0.7,0.4h2.1v-1.1
			C3.7,14.4,3.1,13.9,2.4,13.9z"/>
		<polygon id="XMLID_1443_" class="st6" points="11.2,10.7 26.8,3.4 26.8,0.7 11.2,0.7 		"/>
		<path id="XMLID_1440_" class="st6" d="M5.3,4.5L2.2,9.6c0,0-1.6,1.3-1.6,1.7c0,0.1,0,0.5,0,1l10.7-5.6l0-3.7H7.6
			c0,0-0.6,0.1-1.3,0.6C5.6,4.1,5.3,4.5,5.3,4.5z"/>
		<g id="XMLID_297_">
			<circle id="XMLID_1394_" class="st1" cx="21.5" cy="15.9" r="2.9"/>
			<circle id="XMLID_521_" class="st7" cx="21.5" cy="15.9" r="2"/>
			<path id="XMLID_298_" class="st8" d="M21.5,13c-1.6,0-2.9,1.3-2.9,2.9c0,0.5,0.2,1.1,0.4,1.5l5-2.8C23.5,13.7,22.6,13,21.5,13z"
				/>
		</g>
		<g id="XMLID_41_">
			<circle id="XMLID_272_" class="st1" cx="7.8" cy="16.1" r="2.9"/>
			<circle id="XMLID_221_" class="st7" cx="7.8" cy="16.1" r="2"/>
			<path id="XMLID_208_" class="st8" d="M7.8,13.2c-1.6,0-2.9,1.3-2.9,2.9c0,0.5,0.2,1.1,0.4,1.5l5-2.8C9.9,13.8,8.9,13.2,7.8,13.2z
				"/>
		</g>
	</g>
	<g id="XMLID_34_">
		<path id="XMLID_26_" class="st9" d="M23.5,5.3c-0.5,0-1,0.7-1,0.7V4.5l-7,0v5.6c0,0.6,0.9,1.8,1.5,1.8h3.8c0.6,0,1.6-1.2,1.6-1.8
			V9.4c0,0,0.1-0.1,0.4-0.2c0.3-0.1,1-0.2,1.3-0.6c0.4-0.4,0.6-0.9,0.6-1.9C24.9,5.6,24,5.3,23.5,5.3z"/>
		<path id="XMLID_20_" class="st10" d="M21.8,11H18c-0.6,0-1.1-0.4-1.1-0.9V5.7l6,0v4.4C22.9,10.6,22.4,11,21.8,11z"/>
		<path id="XMLID_84_" class="st9" d="M21.1,2.3c-0.3,0-0.6,0.1-0.8,0.3c-0.1,0-0.3-0.1-0.4-0.1c-0.2,0-0.3,0-0.4,0.1
			c-0.2-0.3-0.6-0.5-1-0.5c-0.5,0-0.9,0.3-1.2,0.7c-0.2-0.1-0.4-0.2-0.6-0.2c-0.6,0-1.1,0.5-1.1,1.1c0,0.6,0.5,1.1,1.1,1.1
			c0.3,0,0.6-0.2,0.8-0.4c0.2,0.2,0.6,0.4,0.9,0.4c0.2,0,0.3,0,0.4-0.1C19,4.9,19.1,5,19.4,5.1c0,0-0.4,2.1-0.4,2.2
			c0,0-0.4,1.6,1.2,1.6c1.6,0,1-1.8,1-1.9c0-0.1-0.6-1.9-0.6-1.9c0.2,0,0.4-0.1,0.5-0.1c0.7,0,1.3-0.6,1.3-1.3S21.8,2.3,21.1,2.3z"
			/>
	</g>
</g>
</svg>
