<?xml version="1.0" encoding="utf-8"?>
<!-- Generator: Adobe Illustrator 19.0.0, SVG Export Plug-In . SVG Version: 6.00 Build 0)  -->
<svg version="1.1" id="Layer_1" xmlns="http://www.w3.org/2000/svg" xmlns:xlink="http://www.w3.org/1999/xlink" x="0px" y="0px" width="400" height ="400"
	 viewBox="0 0 89.3 82" style="enable-background:new 0 0 89.3 82;" xml:space="preserve">
<style type="text/css">
	.st0{fill:#95A5A6;}
	.st1{fill:#7F8C8D;}
	.st2{fill:#FA6800;}
	.st3{opacity:8.000000e-002;}
	.st4{fill:#546E7A;}
	.st5{fill:#FFFFFF;}
	.st6{font-family:'ArialMT';}
	.st7{font-size:8.9257px;}
</style>
<g id="XMLID_283_">
	<polygon id="XMLID_1389_" class="st0" points="84.7,78 4.3,78 17.4,72.1 71.7,72.1 	"/>
	<rect id="XMLID_1386_" x="4.3" y="78" class="st1" width="80.4" height="3.1"/>
	<rect id="XMLID_1383_" x="10.9" y="32.9" class="st2" width="66.5" height="43"/>
	<rect id="XMLID_1380_" x="10.9" y="32.9" class="st3" width="66.5" height="15"/>
	<g id="XMLID_1357_">
		<rect id="XMLID_1377_" x="18.9" y="53.5" class="st0" width="51.2" height="21.8"/>
		<rect id="XMLID_1374_" x="18.9" y="53.5" class="st4" width="51.2" height="2.4"/>
		<rect id="XMLID_1371_" x="18.9" y="58.5" class="st4" width="51.2" height="2.4"/>
		<rect id="XMLID_1368_" x="18.9" y="63.5" class="st4" width="51.2" height="2.4"/>
		<rect id="XMLID_1365_" x="18.9" y="72.8" class="st4" width="51.2" height="2.4"/>
		<rect id="XMLID_1358_" x="18.9" y="68.2" class="st4" width="51.2" height="2.4"/>
	</g>
	<g id="XMLID_302_">
		<polygon id="XMLID_303_" class="st0" points="89.6,37.8 78.2,32.4 45.4,26.9 11.6,32.4 1.1,37.8 45.6,31.7 		"/>
	</g>
	<polygon id="XMLID_291_" class="st1" points="89.4,37.8 45.8,31.7 45.8,31.6 45.5,31.7 45.2,31.6 45.2,31.7 0.9,37.9 1.4,40.9 
		45.5,34.8 89,40.9 	"/>
</g>
<g id="XMLID_1495_">
	<rect id="XMLID_1502_" x="20.6" y="18.6" class="st5" width="49.2" height="11.6"/>
	<g id="XMLID_1498_">
		<text id="XMLID_61_" transform="matrix(1 0 0 1 22.8491 27.7144)" class="st2 st6 st7">Wholesaler</text>
	</g>
</g>
</svg>
