<?xml version="1.0" encoding="utf-8"?>
<!-- Generator: Adobe Illustrator 19.0.0, SVG Export Plug-In . SVG Version: 6.00 Build 0)  -->
<svg version="1.1" id="Layer_1" xmlns="http://www.w3.org/2000/svg" xmlns:xlink="http://www.w3.org/1999/xlink" x="0px" y="0px"
	 viewBox="0 0 370 209.3" style="enable-background:new 0 0 370 209.3;" xml:space="preserve">
<path d="M186.1,85.5h-55V29.1c0,0-7.4,19.8-28.9,41.2c-16.9,16.8-46.7,34.5-46.7,34.5s29.9,17.7,46.7,34.5
	c21.5,21.4,28.9,41.2,28.9,41.2v-56.3h55V85.5z"/>
<path d="M261.7,70.3c-21.5-21.4-28.9-41.2-28.9-41.2v56.3h-48.3v38.7h48.3v56.3c0,0,7.4-19.8,28.9-41.2
	c16.9-16.8,46.7-34.5,46.7-34.5S278.6,87.1,261.7,70.3z"/>
<g>
	<path d="M340.6,9.1l-31.7,12.3c16,23.8,25.3,52.4,25.3,83.2c0,30.9-9.4,59.7-25.4,83.5l31.7,12.3c17.1-27.9,27-60.7,27-95.8
		C367.5,69.6,357.6,36.9,340.6,9.1z"/>
	<path d="M58.5,185.6c-15-23.3-23.7-51.1-23.7-80.9c0-29.7,8.7-57.4,23.6-80.7L26.7,11.7C10.6,39,1.4,70.7,1.4,104.6
		c0,34,9.3,65.9,25.5,93.2L58.5,185.6z"/>
</g>
</svg>
