<?xml version="1.0" encoding="utf-8"?>
<!-- Generator: Adobe Illustrator 19.0.0, SVG Export Plug-In . SVG Version: 6.00 Build 0)  -->
<svg version="1.1" id="Layer_1" xmlns="http://www.w3.org/2000/svg" xmlns:xlink="http://www.w3.org/1999/xlink" x="0px" y="0px" width="800" height="800"
	 viewBox="-79 -120 800 800" style="enable-background:new -79 -120 800 800;" xml:space="preserve">
<style type="text/css">
	.st0{fill:#020202;stroke:#000000;stroke-miterlimit:10;}
	.st1{fill:#CCCCCC;stroke:#000000;stroke-miterlimit:10;}
	.st2{fill:#B3B3B3;}
	.st3{fill:#808080;}
	.st4{fill:#999999;}
	.st5{fill:#666666;}
	.st6{fill:#FFFEDC;}
	.st7{fill:#FCD2D2;}
	.st8{fill:#FFFFFF;}
	.st9{fill:#C0F9F9;}
	.st10{fill:#2E3192;stroke:#000000;stroke-miterlimit:10;}
	.st11{fill:#006837;}
	.st12{opacity:0.86;fill:#FFFFFF;enable-background:new    ;}
	.st13{opacity:0.71;fill:#FFFFFF;enable-background:new    ;}
	.st14{opacity:0.95;fill:#FFFFFF;enable-background:new    ;}
	.st15{opacity:0.66;fill:#FFFFFF;enable-background:new    ;}
	.st16{opacity:0.88;fill:#FFFFFF;enable-background:new    ;}
	.st17{fill:#4D4D4D;}
	.st18{fill:#F4F4A8;stroke:#515151;stroke-width:0.25;stroke-miterlimit:10;}
	.st19{fill:none;stroke:#515151;stroke-width:0.25;stroke-miterlimit:10;}
</style>
<rect id="XMLID_1_" x="-82.5" y="-127" class="st0" width="804" height="800"/>
<ellipse id="XMLID_2_" class="st1" cx="321" cy="678.5" rx="430.5" ry="21.5"/>
<g id="XMLID_4_">
	<ellipse id="XMLID_3_" class="st2" cx="71.9" cy="668.8" rx="38.6" ry="6.7"/>
	<ellipse id="XMLID_5_" class="st3" cx="71.9" cy="670.5" rx="36.4" ry="5"/>
</g>
<g id="XMLID_7_">
	<ellipse id="XMLID_9_" class="st2" cx="280.9" cy="678.8" rx="27.5" ry="4.8"/>
	<ellipse id="XMLID_8_" class="st4" cx="280.9" cy="680" rx="25.9" ry="3.6"/>
</g>
<g id="XMLID_19_">
	
		<ellipse id="XMLID_21_" transform="matrix(-0.9999 1.625795e-002 -1.625795e-002 -0.9999 426.5439 1320.1873)" class="st2" cx="207.9" cy="661.8" rx="19.7" ry="3.4"/>
	
		<ellipse id="XMLID_20_" transform="matrix(-0.9999 1.625795e-002 -1.625795e-002 -0.9999 426.5594 1321.989)" class="st3" cx="207.9" cy="662.7" rx="18.5" ry="2.5"/>
</g>
<g id="XMLID_10_">
	
		<ellipse id="XMLID_12_" transform="matrix(-0.9993 -3.751049e-002 3.751049e-002 -0.9993 848.6699 1339.5316)" class="st2" cx="436.9" cy="661.8" rx="12.6" ry="2.2"/>
	
		<ellipse id="XMLID_11_" transform="matrix(-0.9993 -3.751049e-002 3.751049e-002 -0.9993 848.6422 1340.729)" class="st5" cx="436.9" cy="662.4" rx="11.9" ry="1.6"/>
</g>
<g id="XMLID_13_">
	<ellipse id="XMLID_15_" class="st2" cx="643.3" cy="676.8" rx="41.2" ry="7.1"/>
	<ellipse id="XMLID_14_" class="st5" cx="643.3" cy="678.6" rx="38.8" ry="5.3"/>
</g>
<g id="XMLID_16_">
	<ellipse id="XMLID_18_" class="st2" cx="569.3" cy="661.8" rx="9.2" ry="1.6"/>
	<ellipse id="XMLID_17_" class="st4" cx="569.3" cy="662.2" rx="8.6" ry="1.2"/>
</g>
<polygon id="XMLID_6_" class="st6" points="137.9,361.8 138.5,360 139.1,362 141.2,362 139.6,363.2 140.1,365 138.5,363.8 
	136.8,365 137.5,363 135.8,361.8 "/>
<polygon id="XMLID_75_" class="st6" points="360.6,543.5 361.2,541.7 361.8,543.8 363.9,543.8 362.2,544.9 362.8,546.7 361.2,545.5 
	359.5,546.7 360.2,544.8 358.5,543.6 "/>
<polygon id="XMLID_33_" class="st6" points="189.9,98.3 190.2,97.4 190.5,98.5 191.6,98.5 190.7,99 191,100 190.2,99.4 189.3,100 
	189.7,99 188.8,98.4 "/>
<polygon id="XMLID_27_" class="st6" points="492.8,267.9 493.4,266 494.1,268.2 496.4,268.2 494.6,269.4 495.2,271.4 493.4,270.1 
	491.6,271.4 492.3,269.3 490.5,268 "/>
<polygon id="XMLID_39_" class="st6" points="340.9,98.3 341.3,97.1 341.7,98.5 343.2,98.5 342,99.2 342.4,100.5 341.3,99.7 
	340.2,100.5 340.6,99.1 339.5,98.3 "/>
<polygon id="XMLID_25_" class="st7" points="139.1,409.5 139.7,407.5 140.5,409.7 142.8,409.7 140.9,411 141.6,413 139.7,411.7 
	137.9,413 138.6,410.8 136.8,409.5 "/>
<polygon id="XMLID_47_" class="st7" points="114.3,520.6 115.3,517.6 116.4,521 119.9,521 117.1,522.9 118.1,526 115.3,524 
	112.5,526 113.6,522.7 110.8,520.7 "/>
<polygon id="XMLID_36_" class="st7" points="320.3,-1.4 321.3,-4.4 322.4,-1 325.9,-1 323.1,0.9 324.1,4 321.3,2 318.5,4 319.6,0.7 
	316.8,-1.3 "/>
<polygon id="XMLID_37_" class="st7" points="9.1,-89 9.5,-90.1 9.9,-88.8 11.2,-88.8 10.1,-88.1 10.5,-87 9.5,-87.7 8.4,-87 
	8.8,-88.2 7.8,-89 "/>
<polygon id="XMLID_35_" class="st7" points="503.3,23.6 504.3,20.6 505.4,24 508.9,24 506.1,25.9 507.1,29 504.3,27 501.5,29 
	502.6,25.7 499.8,23.7 "/>
<polygon id="XMLID_30_" class="st7" points="-28.7,512.6 -27.7,509.6 -26.6,513 -23.1,513 -25.9,514.9 -24.9,518 -27.7,516 
	-30.5,518 -29.4,514.7 -32.2,512.7 "/>
<polygon id="XMLID_45_" class="st7" points="-33.7,655.6 -32.7,652.6 -31.6,656 -28.1,656 -30.9,657.9 -29.9,661 -32.7,659 
	-35.5,661 -34.4,657.7 -37.2,655.7 "/>
<polygon id="XMLID_26_" class="st7" points="18.5,333.9 19.2,331.6 20.1,334.2 22.8,334.2 20.6,335.6 21.4,338 19.2,336.5 17.1,338 
	17.9,335.5 15.8,334 "/>
<polygon id="XMLID_24_" class="st8" points="241.9,355.3 242.2,354.4 242.5,355.5 243.6,355.5 242.7,356 243,357 242.2,356.4 
	241.3,357 241.7,356 240.8,355.4 "/>
<polygon id="XMLID_50_" class="st8" points="370.5,227.4 371,225.7 371.6,227.6 373.6,227.6 372,228.7 372.6,230.5 371,229.4 
	369.4,230.5 370.1,228.6 368.5,227.5 "/>
<polygon id="XMLID_49_" class="st8" points="296.3,-100.4 297.3,-103.4 298.4,-100 301.9,-100 299.1,-98.1 300.1,-95 297.3,-97 
	294.5,-95 295.6,-98.3 292.8,-100.3 "/>
<polygon id="XMLID_48_" class="st8" points="154.3,212.6 155.3,209.6 156.4,213 159.9,213 157.1,214.9 158.1,218 155.3,216 
	152.5,218 153.6,214.7 150.8,212.7 "/>
<polygon id="XMLID_43_" class="st8" points="568.3,628.6 569.3,625.6 570.4,629 573.9,629 571.1,630.9 572.1,634 569.3,632 
	566.5,634 567.6,630.7 564.8,628.7 "/>
<polygon id="XMLID_42_" class="st8" points="697.3,428.6 698.3,425.6 699.4,429 702.9,429 700.1,430.9 701.1,434 698.3,432 
	695.5,434 696.6,430.7 693.8,428.7 "/>
<polygon id="XMLID_40_" class="st8" points="679.3,75.6 680.3,72.6 681.4,76 684.9,76 682.1,77.9 683.1,81 680.3,79 677.5,81 
	678.6,77.7 675.8,75.7 "/>
<polygon id="XMLID_41_" class="st8" points="661.1,-57 661.5,-58.4 662,-56.8 663.7,-56.8 662.4,-55.9 662.9,-54.4 661.5,-55.4 
	660.2,-54.4 660.7,-56 659.4,-56.9 "/>
<polygon id="XMLID_31_" class="st8" points="370.8,142 371.3,140.3 371.9,142.2 373.9,142.2 372.3,143.3 372.9,145 371.3,143.9 
	369.8,145 370.4,143.2 368.8,142 "/>
<polygon id="XMLID_32_" class="st8" points="75.1,44.9 75.5,43.8 76,45.1 77.3,45.1 76.2,45.8 76.6,47 75.5,46.2 74.5,47 74.9,45.7 
	73.8,45 "/>
<polygon id="XMLID_38_" class="st8" points="101.3,-96.4 102.3,-99.4 103.4,-96 106.9,-96 104.1,-94.1 105.1,-91 102.3,-93 
	99.5,-91 100.6,-94.3 97.8,-96.3 "/>
<polygon id="XMLID_29_" class="st8" points="129.3,222.2 130,220.1 130.7,222.5 133.2,222.5 131.2,223.8 131.9,226 130,224.6 
	128,226 128.8,223.7 126.8,222.3 "/>
<polygon id="XMLID_23_" class="st9" points="262.5,403.4 263,401.7 263.6,403.6 265.6,403.6 264,404.7 264.6,406.5 263,405.4 
	261.4,406.5 262.1,404.6 260.5,403.5 "/>
<polygon id="XMLID_46_" class="st9" points="426.1,601 426.5,599.8 426.9,601.1 428.2,601.1 427.2,601.8 427.6,603 426.5,602.2 
	425.4,603 425.9,601.8 424.8,601 "/>
<polygon id="XMLID_64_" class="st9" points="287.7,541.4 288.1,540.3 288.5,541.6 289.8,541.6 288.8,542.3 289.2,543.4 288.1,542.7 
	287.1,543.4 287.5,542.2 286.4,541.4 "/>
<polygon id="XMLID_73_" class="st9" points="306.4,649 306.8,647.8 307.2,649.1 308.5,649.1 307.5,649.8 307.8,651 306.8,650.2 
	305.7,651 306.1,649.8 305.1,649 "/>
<polygon id="XMLID_74_" class="st9" points="230.4,586.5 230.8,585.4 231.2,586.7 232.5,586.7 231.5,587.4 231.9,588.5 230.8,587.8 
	229.8,588.5 230.2,587.3 229.1,586.5 "/>
<polygon id="XMLID_44_" class="st9" points="72.3,645.6 73.3,642.6 74.4,646 77.9,646 75.1,647.9 76.1,651 73.3,649 70.5,651 
	71.6,647.7 68.8,645.7 "/>
<polygon id="XMLID_34_" class="st9" points="-21.5,101.3 -21,99.8 -20.4,101.5 -18.7,101.5 -20.1,102.5 -19.6,104 -21,103 
	-22.4,104 -21.8,102.4 -23.2,101.4 "/>
<polygon id="XMLID_28_" class="st9" points="517.5,418.4 518,416.7 518.6,418.6 520.6,418.6 519,419.7 519.6,421.5 518,420.4 
	516.4,421.5 517.1,419.6 515.5,418.5 "/>
<g>
	<path id="XMLID_53_" class="st10" d="M426.9,559.6c6.6,11.4,20.4,21.2,37.9,25.4c14.3,3.4,28.2,2.3,38.8-2.2
		c1.7-4.5,2.7-9.4,2.7-14.4c0-22.2-18-40.1-40.1-40.1C447,528.2,430.9,541.6,426.9,559.6z"/>
	<path id="XMLID_22_" class="st11" d="M461.2,547.1c0,0,0.6,7.3,2.2,11.4c1.6,4.1,6,4,6.2,7.4s2.5,11.3,4.9,12.7
		c2.4,1.3,8.8-9,11.2-14.4s2.4-10.7,1.4-12.6s-12.6-5.8-17.3-6.2c-4.8-0.3-7.1-0.5-7.1-0.5s-6.8-1.2-3.4-5.2c3.3-4,8-3.9,10.3-4
		s6.3-2.4,7.3-2.3c0.9,0.2,0.1-3-2.1-4c-17.1-3.2-28.3,4.4-28.3,4.4s-0.7,4,0.5,6.3C448,542.4,461.2,547.1,461.2,547.1z"/>
	<path id="XMLID_51_" class="st11" d="M496.1,542.4c0.1-0.2,0.3,2.4-0.4,4.2s-1.9,1.7-1.9,4s2.7,6.5,3.6,7.7s3.4,2.3,4.3,3.1
		s3.7,1.8,3.7,1.8s-0.1-4.4-3.1-11.1S496.1,542.5,496.1,542.4z"/>
	<path id="XMLID_52_" class="st12" d="M435.2,554.1c-3-2.9-0.3-14.7,6.7-8.4c6.9,6.3,4.1,10.3,4.1,10.3l-6-6.7c0,0-1.1,2.3-0.4,4.2
		s4.8,7.5,1.6,5.2C438.6,557,436.5,555.3,435.2,554.1z"/>
	<path id="XMLID_55_" class="st12" d="M436.7,541.9c0.5-0.4,20.3,0.1,21.6-1.2c2.4-2.3-3.3-1.8-1.3-4.5s5.6-3.1,7.3-2.3
		s6.6,3.3,7.7,3.8c1.1,0.6,8.4-1.7,8.4-1.7s0.3-4.3-4.7-6.2c-5.9-2.3-15.1-0.7-17-0.5c-7.8,1-16.3,7.1-16.3,7.1L436.7,541.9z"/>
	<path id="XMLID_58_" class="st13" d="M484.4,544.4c-1-0.8-4.1-0.8-4.1-0.8s-3.3,0.6-1.9,3.9c1.4,3.3,3.5,3.8,6,3.9s3.7,0,5.9-1.4
		s2.5-4.8,2.5-4.8s-2.9-5.1-2-4.8s-2.3-3.3-5.2-3.3c-2.8,0-0.5,2.9-0.5,2.9s2.3,2.8,2.6,3.4c0.3,0.6-0.3,2.8-2.1,3.1
		C485.5,547.2,485.4,545.2,484.4,544.4z"/>
	<path id="XMLID_59_" class="st12" d="M440.3,573.1c0,0,1.5-1.9,4.3-0.5s5.8,3.3,6.3,3.5c0.5,0.3,3.8,4,5.9,1.5
		c2.1-2.4,1.2-3.8,0-5.5c-1.2-1.6,4.7-2,8.3,1.6s4.2,3,5.2,4.9s0.4,3.3,2.7,4.7s5.5,0.1,5.8-0.3c0.3-0.4,0.5-1.3,4.8-2.3
		c4.3-0.9,12.5,0.9,13.7,1.6s1.8,1.5,1.8,1.5s-18.4,5.3-35.1,0.2C447.2,579.2,440.3,573.1,440.3,573.1z"/>
	<path id="XMLID_56_" class="st14" d="M478.3,566.7c0.1,3.3,0.1,4,2.5,4.9s5.4,0.5,7.2-2.2s2.6-3.2,1.2-6.8s-3.5-5.6-7-4.4
		c-3.5,1.2-5,6.6-5,6.6s2.6-2.3,4.1-3s5.5-0.6,5.7,0.9s-1.8,5.5-2.8,5.3s-3.5-1.2-2.3-2.3c1.3-1.1,3.6-2.7,1.7-2.6
		C481.6,563.1,478.3,566.7,478.3,566.7z"/>
	<path id="XMLID_57_" class="st15" d="M504.8,559.3c0,0-2.8-1.2-4.3,3.1s1.5,2.4,2.1,4.3c0.6,1.9,0.9,3.3,0.1,3.9
		c-0.8,0.6-1,2,0,2.7s2.4,1.4,2.4,1.4s0.8-4.4,0.6-7.8C505.7,563.5,504.8,559.3,504.8,559.3z"/>
	<path id="XMLID_54_" class="st16" d="M458.2,561.1c0.1-7.4,10.7-7.8,3.3-11.9c-7.3-4.1,5.3-1,5.5,2.6c0.3,3.6,4.8,6.4-1,8.2
		s-0.8-0.2,2.3,1.1s7.2,4.3,1.6,4.1C464.4,565.1,458.2,561.1,458.2,561.1z"/>
</g>
<g id="XMLID_63_">
	
		<ellipse id="XMLID_62_" transform="matrix(-0.9978 6.625621e-002 -6.625621e-002 -0.9978 28.5395 1337.0431)" class="st17" cx="-7.9" cy="669" rx="31.4" ry="2.6"/>
	<path id="XMLID_61_" class="st4" d="M-38.1,671c4-2.3,11.4-2.6,13.5-8.6l18.5-0.4l18.9-1.2c0,0,0.5,5.7,9.3,5.7S6.6,670.2-6.5,671
		S-38.1,671-38.1,671z"/>
	
		<ellipse id="XMLID_60_" transform="matrix(-0.9991 4.281328e-002 -4.281328e-002 -0.9991 16.5286 1322.8792)" class="st17" cx="-5.9" cy="661.6" rx="18.8" ry="1.2"/>
</g>
<g id="XMLID_65_">
	<path id="XMLID_68_" class="st17" d="M371.9,657.2c-0.1,0.8,8.4,2.1,19,2.7c10.5,0.7,19.1,0.6,19.2-0.3c0.1-0.8-8.4-2.1-19-2.7
		C380.6,656.2,372,656.3,371.9,657.2z"/>
	<path id="XMLID_67_" class="st4" d="M409.4,659.5c-2.4-1.3-6.9-1.5-8.2-5.1l-11.3-0.2l-11.5-0.7c0,0-0.3,3.4-5.7,3.4
		c-5.4,0,9.4,2.2,17.4,2.6C398.1,660,409.4,659.5,409.4,659.5z"/>
	
		<ellipse id="XMLID_66_" transform="matrix(0.9991 4.134245e-002 -4.134245e-002 0.9991 27.3747 -15.5538)" class="st17" cx="389.7" cy="654.1" rx="11.4" ry="0.7"/>
</g>
<g id="XMLID_69_">
	<path id="XMLID_72_" class="st17" d="M582.9,662.2c-0.1,0.8,8.4,2.1,19,2.7c10.5,0.7,19.1,0.6,19.2-0.3s-8.4-2.1-19-2.7
		C591.6,661.2,583,661.3,582.9,662.2z"/>
	<path id="XMLID_71_" class="st4" d="M620.4,664.5c-2.4-1.3-6.9-1.5-8.2-5.1l-11.3-0.2l-11.5-0.7c0,0-0.3,3.4-5.7,3.4
		s9.4,2.2,17.4,2.6C609.1,665,620.4,664.5,620.4,664.5z"/>
	
		<ellipse id="XMLID_70_" transform="matrix(0.9991 4.134245e-002 -4.134245e-002 0.9991 27.7611 -24.2732)" class="st17" cx="600.8" cy="659.1" rx="11.4" ry="0.7"/>
</g>
<g>
	<ellipse class="st18" cx="329.6" cy="674" rx="19.1" ry="2.4"/>
	<ellipse class="st19" cx="329.6" cy="674" rx="11.3" ry="1.4"/>
	<ellipse class="st19" cx="329.6" cy="674" rx="3.4" ry="0.4"/>
</g>
</svg>
