<?xml version="1.0" encoding="utf-8"?>
<!-- Generator: Adobe Illustrator 19.0.0, SVG Export Plug-In . SVG Version: 6.00 Build 0)  -->
<svg version="1.1" id="Layer_1" xmlns="http://www.w3.org/2000/svg" xmlns:xlink="http://www.w3.org/1999/xlink" x="0px" y="0px" width="800" height ="800"
	 viewBox="-79 -120 800 800" style="enable-background:new -79 -120 800 800;" xml:space="preserve">
<style type="text/css">
	.st0{fill:#020202;stroke:#000000;stroke-miterlimit:10;}
	.st1{fill:#CCCCCC;stroke:#000000;stroke-miterlimit:10;}
	.st2{fill:#B3B3B3;}
	.st3{fill:#808080;}
	.st4{fill:#999999;}
	.st5{fill:#666666;}
	.st6{fill:#FFFEDC;}
	.st7{fill:#FCD2D2;}
	.st8{fill:#FFFFFF;}
	.st9{fill:#C0F9F9;}
	.st10{fill:#2E3192;stroke:#000000;stroke-miterlimit:10;}
	.st11{fill:#006837;}
	.st12{opacity:0.86;fill:#FFFFFF;enable-background:new    ;}
	.st13{opacity:0.71;fill:#FFFFFF;enable-background:new    ;}
	.st14{opacity:0.95;fill:#FFFFFF;enable-background:new    ;}
	.st15{opacity:0.66;fill:#FFFFFF;enable-background:new    ;}
	.st16{opacity:0.88;fill:#FFFFFF;enable-background:new    ;}
	.st17{fill:#4D4D4D;}
</style>
<rect id="XMLID_1_" x="-83" y="-126" class="st0" width="804" height="800"/>
<ellipse id="XMLID_2_" class="st1" cx="320.5" cy="679.5" rx="430.5" ry="21.5"/>
<g id="XMLID_4_">
	<ellipse id="XMLID_3_" class="st2" cx="71.4" cy="669.8" rx="38.6" ry="6.7"/>
	<ellipse id="XMLID_5_" class="st3" cx="71.4" cy="671.5" rx="36.4" ry="5"/>
</g>
<g id="XMLID_7_">
	<ellipse id="XMLID_9_" class="st2" cx="280.4" cy="679.8" rx="27.5" ry="4.8"/>
	<ellipse id="XMLID_8_" class="st4" cx="280.4" cy="681" rx="25.9" ry="3.6"/>
</g>
<g id="XMLID_19_">
	
		<ellipse id="XMLID_21_" transform="matrix(-1.625847e-002 -0.9999 0.9999 -1.625847e-002 -451.956 880.9828)" class="st2" cx="207.4" cy="662.8" rx="3.4" ry="19.7"/>
	
		<ellipse id="XMLID_20_" transform="matrix(-1.625847e-002 -0.9999 0.9999 -1.625847e-002 -452.8555 881.8984)" class="st3" cx="207.4" cy="663.7" rx="2.5" ry="18.5"/>
</g>
<g id="XMLID_10_">
	
		<ellipse id="XMLID_12_" transform="matrix(3.751063e-002 -0.9993 0.9993 3.751063e-002 -242.3047 1074.037)" class="st2" cx="436.4" cy="662.8" rx="2.2" ry="12.6"/>
	
		<ellipse id="XMLID_11_" transform="matrix(3.751063e-002 -0.9993 0.9993 3.751063e-002 -242.9069 1074.6134)" class="st5" cx="436.4" cy="663.4" rx="1.6" ry="11.9"/>
</g>
<g id="XMLID_13_">
	<ellipse id="XMLID_15_" class="st2" cx="642.8" cy="677.8" rx="41.2" ry="7.1"/>
	<ellipse id="XMLID_14_" class="st5" cx="642.8" cy="679.6" rx="38.8" ry="5.3"/>
</g>
<g id="XMLID_16_">
	<ellipse id="XMLID_18_" class="st2" cx="568.8" cy="662.8" rx="9.2" ry="1.6"/>
	<ellipse id="XMLID_17_" class="st4" cx="568.8" cy="663.2" rx="8.6" ry="1.2"/>
</g>
<polygon id="XMLID_6_" class="st6" points="138.8,360.6 139.8,357.6 140.9,361 144.4,361 141.6,362.9 142.6,366 139.8,364 137,366 
	138.1,362.7 135.3,360.7 "/>
<polygon id="XMLID_33_" class="st6" points="191.8,95.6 192.8,92.6 193.9,96 197.4,96 194.6,97.9 195.6,101 192.8,99 190,101 
	191.1,97.7 188.3,95.7 "/>
<polygon id="XMLID_27_" class="st6" points="493.8,266.6 494.8,263.6 495.9,267 499.4,267 496.6,268.9 497.6,272 494.8,270 492,272 
	493.1,268.7 490.3,266.7 "/>
<polygon id="XMLID_39_" class="st6" points="342.8,95.6 343.8,92.6 344.9,96 348.4,96 345.6,97.9 346.6,101 343.8,99 341,101 
	342.1,97.7 339.3,95.7 "/>
<polygon id="XMLID_25_" class="st7" points="139.8,408.6 140.8,405.6 141.9,409 145.4,409 142.6,410.9 143.6,414 140.8,412 138,414 
	139.1,410.7 136.3,408.7 "/>
<polygon id="XMLID_47_" class="st7" points="113.8,521.6 114.8,518.6 115.9,522 119.4,522 116.6,523.9 117.6,527 114.8,525 112,527 
	113.1,523.7 110.3,521.7 "/>
<polygon id="XMLID_36_" class="st7" points="319.8,-0.4 320.8,-3.4 321.9,0 325.4,0 322.6,1.9 323.6,5 320.8,3 318,5 319.1,1.7 
	316.3,-0.3 "/>
<polygon id="XMLID_37_" class="st7" points="10.8,-91.4 11.8,-94.4 12.9,-91 16.4,-91 13.6,-89.1 14.6,-86 11.8,-88 9,-86 
	10.1,-89.3 7.3,-91.3 "/>
<polygon id="XMLID_35_" class="st7" points="502.8,24.6 503.8,21.6 504.9,25 508.4,25 505.6,26.9 506.6,30 503.8,28 501,30 
	502.1,26.7 499.3,24.7 "/>
<polygon id="XMLID_30_" class="st7" points="-29.2,513.6 -28.2,510.6 -27.1,514 -23.6,514 -26.4,515.9 -25.4,519 -28.2,517 -31,519 
	-29.9,515.7 -32.7,513.7 "/>
<polygon id="XMLID_45_" class="st7" points="-34.2,656.6 -33.2,653.6 -32.1,657 -28.6,657 -31.4,658.9 -30.4,662 -33.2,660 -36,662 
	-34.9,658.7 -37.7,656.7 "/>
<polygon id="XMLID_26_" class="st7" points="18.8,333.6 19.8,330.6 20.9,334 24.4,334 21.6,335.9 22.6,339 19.8,337 17,339 
	18.1,335.7 15.3,333.7 "/>
<polygon id="XMLID_24_" class="st8" points="243.8,352.6 244.8,349.6 245.9,353 249.4,353 246.6,354.9 247.6,358 244.8,356 242,358 
	243.1,354.7 240.3,352.7 "/>
<polygon id="XMLID_50_" class="st8" points="371.8,225.6 372.8,222.6 373.9,226 377.4,226 374.6,227.9 375.6,231 372.8,229 370,231 
	371.1,227.7 368.3,225.7 "/>
<polygon id="XMLID_49_" class="st8" points="295.8,-99.4 296.8,-102.4 297.9,-99 301.4,-99 298.6,-97.1 299.6,-94 296.8,-96 
	294,-94 295.1,-97.3 292.3,-99.3 "/>
<polygon id="XMLID_48_" class="st8" points="153.8,213.6 154.8,210.6 155.9,214 159.4,214 156.6,215.9 157.6,219 154.8,217 152,219 
	153.1,215.7 150.3,213.7 "/>
<polygon id="XMLID_43_" class="st8" points="567.8,629.6 568.8,626.6 569.9,630 573.4,630 570.6,631.9 571.6,635 568.8,633 566,635 
	567.1,631.7 564.3,629.7 "/>
<polygon id="XMLID_42_" class="st8" points="696.8,429.6 697.8,426.6 698.9,430 702.4,430 699.6,431.9 700.6,435 697.8,433 695,435 
	696.1,431.7 693.3,429.7 "/>
<polygon id="XMLID_40_" class="st8" points="678.8,76.6 679.8,73.6 680.9,77 684.4,77 681.6,78.9 682.6,82 679.8,80 677,82 
	678.1,78.7 675.3,76.7 "/>
<polygon id="XMLID_41_" class="st8" points="662.8,-59.4 663.8,-62.4 664.9,-59 668.4,-59 665.6,-57.1 666.6,-54 663.8,-56 661,-54 
	662.1,-57.3 659.3,-59.3 "/>
<polygon id="XMLID_31_" class="st8" points="371.8,140.6 372.8,137.6 373.9,141 377.4,141 374.6,142.9 375.6,146 372.8,144 370,146 
	371.1,142.7 368.3,140.7 "/>
<polygon id="XMLID_32_" class="st8" points="76.8,42.6 77.8,39.6 78.9,43 82.4,43 79.6,44.9 80.6,48 77.8,46 75,48 76.1,44.7 
	73.3,42.7 "/>
<polygon id="XMLID_38_" class="st8" points="100.8,-95.4 101.8,-98.4 102.9,-95 106.4,-95 103.6,-93.1 104.6,-90 101.8,-92 99,-90 
	100.1,-93.3 97.3,-95.3 "/>
<polygon id="XMLID_29_" class="st8" points="129.8,221.6 130.8,218.6 131.9,222 135.4,222 132.6,223.9 133.6,227 130.8,225 128,227 
	129.1,223.7 126.3,221.7 "/>
<polygon id="XMLID_23_" class="st9" points="263.8,401.6 264.8,398.6 265.9,402 269.4,402 266.6,403.9 267.6,407 264.8,405 262,407 
	263.1,403.7 260.3,401.7 "/>
<polygon id="XMLID_46_" class="st9" points="427.8,598.6 428.8,595.6 429.9,599 433.4,599 430.6,600.9 431.6,604 428.8,602 426,604 
	427.1,600.7 424.3,598.7 "/>
<polygon id="XMLID_44_" class="st9" points="71.8,646.6 72.8,643.6 73.9,647 77.4,647 74.6,648.9 75.6,652 72.8,650 70,652 
	71.1,648.7 68.3,646.7 "/>
<polygon id="XMLID_34_" class="st9" points="-20.2,99.6 -19.2,96.6 -18.1,100 -14.6,100 -17.4,101.9 -16.4,105 -19.2,103 -22,105 
	-20.9,101.7 -23.7,99.7 "/>
<polygon id="XMLID_28_" class="st9" points="518.8,416.6 519.8,413.6 520.9,417 524.4,417 521.6,418.9 522.6,422 519.8,420 517,422 
	518.1,418.7 515.3,416.7 "/>
<path id="XMLID_53_" class="st10" d="M589,567c6.6,11.4,20.4,21.2,37.9,25.4c14.3,3.4,28.2,2.3,38.8-2.2c1.7-4.5,2.7-9.4,2.7-14.4
	c0-22.2-18-40.1-40.1-40.1C609.1,535.6,593,549,589,567z"/>
<path id="XMLID_22_" class="st11" d="M623.3,554.5c0,0,0.6,7.3,2.2,11.4c1.6,4.1,6,4,6.2,7.4s2.5,11.3,4.9,12.7
	c2.4,1.3,8.8-9,11.2-14.4s2.4-10.7,1.4-12.6s-12.6-5.8-17.3-6.2c-4.8-0.3-7.1-0.5-7.1-0.5s-6.8-1.2-3.4-5.2c3.3-4,8-3.9,10.3-4
	s6.3-2.4,7.3-2.3c0.9,0.2,0.1-3-2.1-4c-17.1-3.2-28.3,4.4-28.3,4.4s-0.7,4,0.5,6.3C610.1,549.8,623.3,554.5,623.3,554.5z"/>
<path id="XMLID_51_" class="st11" d="M658.2,549.8c0.1-0.2,0.3,2.4-0.4,4.2s-1.9,1.7-1.9,4s2.7,6.5,3.6,7.7s3.4,2.3,4.3,3.1
	s3.7,1.8,3.7,1.8s-0.1-4.4-3.1-11.1S658.2,549.9,658.2,549.8z"/>
<path id="XMLID_52_" class="st12" d="M597.3,561.5c-3-2.9-0.3-14.7,6.7-8.4c6.9,6.3,4.1,10.3,4.1,10.3l-6-6.7c0,0-1.1,2.3-0.4,4.2
	c0.7,1.9,4.8,7.5,1.6,5.2C600.7,564.4,598.6,562.7,597.3,561.5z"/>
<path id="XMLID_55_" class="st12" d="M598.8,549.3c0.5-0.4,20.3,0.1,21.6-1.2c2.4-2.3-3.3-1.8-1.3-4.5s5.6-3.1,7.3-2.3
	s6.6,3.3,7.7,3.8c1.1,0.6,8.4-1.7,8.4-1.7s0.3-4.3-4.7-6.2c-5.9-2.3-15.1-0.7-17-0.5c-7.8,1-16.3,7.1-16.3,7.1L598.8,549.3z"/>
<path id="XMLID_58_" class="st13" d="M646.5,551.8c-1-0.8-4.1-0.8-4.1-0.8s-3.3,0.6-1.9,3.9c1.4,3.3,3.5,3.8,6,3.9s3.7,0,5.9-1.4
	s2.5-4.8,2.5-4.8s-2.9-5.1-2-4.8s-2.3-3.3-5.2-3.3c-2.8,0-0.5,2.9-0.5,2.9s2.3,2.8,2.6,3.4c0.3,0.6-0.3,2.8-2.1,3.1
	C647.6,554.6,647.5,552.6,646.5,551.8z"/>
<path id="XMLID_59_" class="st12" d="M602.4,580.5c0,0,1.5-1.9,4.3-0.5s5.8,3.3,6.3,3.5c0.5,0.3,3.8,4,5.9,1.5
	c2.1-2.4,1.2-3.8,0-5.5c-1.2-1.6,4.7-2,8.3,1.6s4.2,3,5.2,4.9s0.4,3.3,2.7,4.7s5.5,0.1,5.8-0.3c0.3-0.4,0.5-1.3,4.8-2.3
	c4.3-0.9,12.5,0.9,13.7,1.6s1.8,1.5,1.8,1.5s-18.4,5.3-35.1,0.2C609.3,586.6,602.4,580.5,602.4,580.5z"/>
<path id="XMLID_56_" class="st14" d="M640.4,574.1c0.1,3.3,0.1,4,2.5,4.9s5.4,0.5,7.2-2.2s2.6-3.2,1.2-6.8s-3.5-5.6-7-4.4
	c-3.5,1.2-5,6.6-5,6.6s2.6-2.3,4.1-3s5.5-0.6,5.7,0.9s-1.8,5.5-2.8,5.3s-3.5-1.2-2.3-2.3c1.3-1.1,3.6-2.7,1.7-2.6
	C643.7,570.5,640.4,574.1,640.4,574.1z"/>
<path id="XMLID_57_" class="st15" d="M666.9,566.7c0,0-2.8-1.2-4.3,3.1s1.5,2.4,2.1,4.3c0.6,1.9,0.9,3.3,0.1,3.9c-0.8,0.6-1,2,0,2.7
	s2.4,1.4,2.4,1.4s0.8-4.4,0.6-7.8C667.8,570.9,666.9,566.7,666.9,566.7z"/>
<path id="XMLID_54_" class="st16" d="M620.3,568.5c0.1-7.4,10.7-7.8,3.3-11.9c-7.3-4.1,5.3-1,5.5,2.6c0.3,3.6,4.8,6.4-1,8.2
	s-0.8-0.2,2.3,1.1s7.2,4.3,1.6,4.1C626.5,572.5,620.3,568.5,620.3,568.5z"/>
<g id="XMLID_63_">
	
		<ellipse id="XMLID_62_" transform="matrix(-6.625603e-002 -0.9978 0.9978 -6.625603e-002 -677.484 706.0048)" class="st17" cx="-8.4" cy="670" rx="2.6" ry="31.4"/>
	<path id="XMLID_61_" class="st4" d="M-38.6,672c4-2.3,11.4-2.6,13.5-8.6l18.5-0.4l18.9-1.2c0,0,0.5,5.7,9.3,5.7S6.1,671.2-7,672
		S-38.6,672-38.6,672z"/>
	
		<ellipse id="XMLID_60_" transform="matrix(-4.281401e-002 -0.9991 0.9991 -4.281401e-002 -668.6791 684.5909)" class="st17" cx="-6.4" cy="662.6" rx="1.2" ry="18.8"/>
</g>
<g id="XMLID_65_">
	<path id="XMLID_68_" class="st17" d="M371.4,658.2c-0.1,0.8,8.4,2.1,19,2.7c10.5,0.7,19.1,0.6,19.2-0.3c0.1-0.8-8.4-2.1-19-2.7
		C380.1,657.2,371.5,657.3,371.4,658.2z"/>
	<path id="XMLID_67_" class="st4" d="M408.9,660.5c-2.4-1.3-6.9-1.5-8.2-5.1l-11.3-0.2l-11.5-0.7c0,0-0.3,3.4-5.7,3.4
		c-5.4,0,9.4,2.2,17.4,2.6C397.6,661,408.9,660.5,408.9,660.5z"/>
	
		<ellipse id="XMLID_66_" transform="matrix(-4.134059e-002 0.9991 -0.9991 -4.134059e-002 1059.8495 293.218)" class="st17" cx="389.3" cy="655.1" rx="0.7" ry="11.4"/>
</g>
<g id="XMLID_69_">
	<path id="XMLID_72_" class="st17" d="M582.4,663.2c-0.1,0.8,8.4,2.1,19,2.7c10.5,0.7,19.1,0.6,19.2-0.3s-8.4-2.1-19-2.7
		C591.1,662.2,582.5,662.3,582.4,663.2z"/>
	<path id="XMLID_71_" class="st4" d="M619.9,665.5c-2.4-1.3-6.9-1.5-8.2-5.1l-11.3-0.2l-11.5-0.7c0,0-0.3,3.4-5.7,3.4
		s9.4,2.2,17.4,2.6C608.6,666,619.9,665.5,619.9,665.5z"/>
	
		<ellipse id="XMLID_70_" transform="matrix(-4.134059e-002 0.9991 -0.9991 -4.134059e-002 1284.5781 87.5957)" class="st17" cx="600.3" cy="660.1" rx="0.7" ry="11.4"/>
</g>
</svg>
