<?xml version="1.0" encoding="utf-8"?>
<!-- Generator: Adobe Illustrator 19.0.0, SVG Export Plug-In . SVG Version: 6.00 Build 0)  -->
<svg version="1.1" id="Layer_1" xmlns="http://www.w3.org/2000/svg" xmlns:xlink="http://www.w3.org/1999/xlink" x="0px" y="0px" width="900" height="200"
	 viewBox="0 0 900 200" style="enable-background:new 0 0 900 200;" xml:space="preserve">
<style type="text/css">
	.st0{fill:#4D4D4D;}
	.st1{fill:#AA822A;}
	.st2{fill:#808080;}
	.st3{fill:#F8C538;}
	.st4{fill:#BEBEBC;}
	.st5{fill:#D4D6C9;}
	.st6{fill:#666666;}
	.st7{fill:#585858;}
	.st8{fill:#CCCCCC;}
	.st9{fill:#07000C;}
	.st10{fill:#FFEA52;}
	.st11{fill:#FFFDD2;}
	.st12{fill:#F9D885;}
</style>
<g id="XMLID_2_">
	<polygon id="XMLID_4_" class="st0" points="98.8,115.7 94.8,152.1 129.2,152.1 124.9,115.7 	"/>
	<rect id="XMLID_5_" x="112.4" y="99.1" class="st1" width="48.8" height="39.7"/>
	<polygon id="XMLID_1_" class="st2" points="147.2,77.8 127.4,98.3 98.9,98.9 78.3,79.2 77.8,50.6 97.5,30.1 126,29.5 146.6,49.3 	
		"/>
	<g id="XMLID_6_">
		<g id="XMLID_412_">
			<path id="XMLID_417_" class="st1" d="M196.6,162.4c0,0,0-0.1,0-0.1C196.6,162.2,196.6,162.5,196.6,162.4z"/>
			<path id="XMLID_414_" class="st1" d="M208.1,162.9L179.5,107l-0.1-0.2L142,82.5l-1.7,2.5l36.5,23.4L161,138.3l1.6,0.3l0,0l34,8.3
				l7.9,15.9h-7.9c0,0,0-0.1,0,0c0.1,2.5,4.5,4.4,9.9,4.4c5.4,0,9.7-1.8,9.9-4.3c0-0.1,0-0.1,0-0.1H208.1z M163.3,137.2l14.4-27.4
				l17.9,34.8L163.3,137.2z"/>
			<path id="XMLID_413_" class="st1" d="M216.3,162.2c0,0,0,0.1,0,0.1C216.3,162.5,216.3,162.2,216.3,162.2z"/>
		</g>
	</g>
	<g id="XMLID_7_">
		<g id="XMLID_405_">
			<path id="XMLID_410_" class="st3" d="M28.7,162.4c0,0,0-0.1,0-0.1C28.7,162.2,28.7,162.5,28.7,162.4z"/>
			<path id="XMLID_407_" class="st3" d="M9,162.9C9,162.9,9,162.8,9,162.9c0.1,2.4,4.5,4.4,9.9,4.4c5.4,0,9.7-1.8,9.9-4.3
				c0-0.1,0-0.1,0-0.1h-7.9l7.9-15.9l34-8.1l0,0l1.6-0.5l-15.8-30L85,85l-1.7-2.6l-37.5,24.1l-0.1,0.5l-28.6,55.9H9z M29.7,144.7
				l17.9-34.8L62,137.2L29.7,144.7z"/>
			<path id="XMLID_406_" class="st3" d="M9,162.2c0,0,0,0.1,0,0.1C9,162.5,9,162.2,9,162.2z"/>
		</g>
	</g>
	<g id="XMLID_31_">
		<g id="XMLID_346_">
			<path id="XMLID_361_" class="st3" d="M102.4,162.4c0,0,0-0.1,0-0.1C102.4,162.2,102.4,162.5,102.4,162.4z"/>
			<path id="XMLID_354_" class="st3" d="M122.1,162.2c0,0,0,0.1,0,0.1C122.1,162.5,122.1,162.2,122.1,162.2z"/>
			<path id="XMLID_347_" class="st3" d="M113.5,162.9l0.1-23.6l-3.1,0.2l-0.1,23.4h-8c0,0,0-0.1,0,0c0.1,2.5,4.5,4.4,9.9,4.4
				c5.4,0,9.7-1.8,9.9-4.3c0-0.1,0-0.1,0-0.1H113.5z"/>
		</g>
	</g>
	<polygon id="XMLID_24_" class="st2" points="77.8,50.6 72.7,80.9 63.6,99.8 104.4,100.8 	"/>
	<circle id="XMLID_26_" class="st4" cx="112.3" cy="19.2" r="7.8"/>
	<polygon id="XMLID_28_" class="st5" points="96.3,46.5 72.7,34.4 73.8,32.7 97.4,44.5 	"/>
	<rect id="XMLID_11_" x="111" y="26.9" class="st5" width="2.6" height="4.4"/>
	<circle id="XMLID_33_" class="st4" cx="113.1" cy="69.8" r="30"/>
	<rect id="XMLID_29_" x="68.1" y="32.4" class="st5" width="28.7" height="1.9"/>
	<circle id="XMLID_27_" class="st4" cx="60.9" cy="33.2" r="8"/>
	<g id="XMLID_36_">
		<path id="XMLID_37_" class="st6" d="M83.6,63.9h21.3l2.4-15.7l-13.5-1.5C88.7,51,85,57.9,83.6,63.9z"/>
		<path id="XMLID_39_" class="st6" d="M132.4,46.8l-12.7,1.4l2.4,15.7h20.5C141.2,57.9,137.5,51.1,132.4,46.8z"/>
	</g>
	<polygon id="XMLID_25_" class="st7" points="142.5,99.1 132.5,89.1 132.5,75.2 142.5,65.8 156.3,65.8 165.8,75.2 165.8,89.1 
		156.3,99.1 	"/>
	<path id="XMLID_41_" class="st6" d="M99.2,96.4c4.1,2.2,8.9,3.4,13.9,3.4c5.1,0,9.9-1.3,14-3.5L122,63.9h-17.1L99.2,96.4z"/>
	<rect id="XMLID_3_" x="63.6" y="99.1" class="st3" width="48.8" height="39.7"/>
	<polygon id="XMLID_10_" class="st8" points="86.7,55.3 76.1,60.4 74.8,68.2 82.5,65.8 	"/>
	<polygon id="XMLID_42_" class="st8" points="83.8,77.2 90.2,89.3 72.7,80.9 73.3,77.1 83.8,77.2 	"/>
</g>
<g id="XMLID_67_">
	<polygon id="XMLID_183_" class="st9" points="833.4,125.3 834.9,143.9 865.1,135.3 856.2,118.8 	"/>
	
		<rect id="XMLID_180_" x="798.3" y="126.8" transform="matrix(0.8891 -0.4577 0.4577 0.8891 26.4899 392.2112)" class="st1" width="48.8" height="29.4"/>
	<polygon id="XMLID_179_" class="st2" points="831.2,125.4 811.4,145.9 782.9,146.5 762.4,126.7 761.8,98.2 781.6,77.7 810.1,77.1 
		830.6,96.9 	"/>
	<g id="XMLID_164_">
		<g id="XMLID_393_">
			<path id="XMLID_398_" class="st1" d="M873.1,145.5C873.1,145.5,873.1,145.5,873.1,145.5C873,145.5,873.2,145.6,873.1,145.5z"/>
			<path id="XMLID_395_" class="st1" d="M880.4,136.6L820,121.2l0,0.1l-42.9,12l0.8,2.9l41.8-11.7l11.9,31.6l1.3-0.9l0,0l28.4-20.3
				l16.8,4.3l-5.3,5.9c0.2,0.2,0.3,0.3,0.4,0.3c2,1.6,6.5-0.3,10-4.3c3.6-4,4.8-8.7,3-10.5c-0.1,0-0.2-0.1-0.3-0.3L880.4,136.6z
				 M832.3,153.8l-10.9-29l38,9.7L832.3,153.8z"/>
			<path id="XMLID_394_" class="st1" d="M886.1,130.7C886.1,130.7,886.2,130.7,886.1,130.7C886.4,130.9,886.1,130.6,886.1,130.7z"/>
		</g>
	</g>
	<g id="XMLID_151_">
		<g id="XMLID_386_">
			<path id="XMLID_391_" class="st3" d="M734.1,157.4C734.1,157.3,734.1,157.3,734.1,157.4C734.1,157.2,734,157.5,734.1,157.4z"/>
			<path id="XMLID_388_" class="st3" d="M715.3,151.2c0,0-0.1,0.3-0.1,0.4c-0.6,2.5,2.9,5.8,8.1,7.4c5.2,1.6,10,0.8,10.8-1.6
				c0-0.1,0.1-0.5,0.1-0.5l-7.6-2.3l12-12.5l34.8,2.3l0,0l1.6,0.1l-6.5-33.2l41.7-11.9l-0.8-2.9l-42.8,12.3l0,0l-43.4,44.8
				L715.3,151.2z M740,140.7l27.2-28.2l5.9,30.4L740,140.7z"/>
			<path id="XMLID_387_" class="st3" d="M715.2,151.5c0,0,0,0.1,0,0.1C715.1,151.8,715.2,151.5,715.2,151.5z"/>
		</g>
	</g>
	<g id="XMLID_133_">
		<g id="XMLID_339_">
			<path id="XMLID_344_" class="st3" d="M832.2,163.5C832.1,163.5,832.1,163.5,832.2,163.5C832.1,163.4,832.2,163.6,832.2,163.5z"/>
			<path id="XMLID_343_" class="st3" d="M847.8,151.5C847.8,151.5,847.9,151.6,847.8,151.5C848,151.8,847.8,151.5,847.8,151.5z"/>
			<path id="XMLID_340_" class="st3" d="M840.7,156.4L826.9,138l-2.5,1.9l13.8,18.5l-6.4,4.8c0.2,0.2,0.3,0.3,0.3,0.4
				c1.6,1.9,6.4,1,10.7-2.2c4.3-3.2,6.4-7.6,5-9.7c0-0.1-0.1-0.2-0.3-0.3L840.7,156.4z"/>
		</g>
	</g>
	<polygon id="XMLID_132_" class="st2" points="761.8,98.2 756.7,128.5 747.6,147.4 788.5,148.4 	"/>
	<circle id="XMLID_129_" class="st4" cx="837.2" cy="130.5" r="7.8"/>
	<polygon id="XMLID_128_" class="st5" points="728.9,153.9 705.3,141.7 706.4,140.1 730,151.9 	"/>
	<rect id="XMLID_117_" x="831.2" y="134.6" class="st5" width="2.6" height="4.4"/>
	<circle id="XMLID_116_" class="st4" cx="797.1" cy="117.3" r="30"/>
	<rect id="XMLID_115_" x="715.2" y="132.3" class="st5" width="28.7" height="1.9"/>
	<circle id="XMLID_114_" class="st4" cx="704.9" cy="144.5" r="8"/>
	<g id="XMLID_111_">
		<path id="XMLID_113_" class="st6" d="M766.7,109.9H788l2.4-15.9l-13.5-1.4C771.7,96.9,768,103.9,766.7,109.9z"/>
		<path id="XMLID_112_" class="st6" d="M815.5,92.6l-12.7,1.5l2.4,15.8h20.5C824.2,103.9,820.6,96.9,815.5,92.6z"/>
	</g>
	<polygon id="XMLID_88_" class="st7" points="830.3,128.6 820.3,118.6 820.3,104.7 830.3,95.3 844.2,95.3 853.6,104.7 853.6,118.6 
		844.2,128.6 	"/>
	<path id="XMLID_87_" class="st6" d="M783.2,144.2c4.1,2.2,8.9,3.3,13.9,3.3c5.1,0,9.9-1.1,14-3.3l-5.1-32.3h-17.1L783.2,144.2z"/>
	
		<rect id="XMLID_74_" x="760.7" y="135.5" transform="matrix(0.9915 0.1303 -0.1303 0.9915 26.2599 -101.0167)" class="st3" width="48.8" height="29.4"/>
	<polygon id="XMLID_73_" class="st8" points="774.6,84.8 764,89.9 762.6,97.7 770.3,95.3 	"/>
	<polygon id="XMLID_71_" class="st8" points="767.8,124.8 774.3,136.8 756.7,128.5 757.3,124.7 767.8,124.8 	"/>
</g>
<g id="XMLID_56_">
	<path id="XMLID_55_" class="st10" d="M321.2,153.9c0,0,3.7,33,15.9,33s15.9-33,15.9-33L321.2,153.9z"/>
	<path id="XMLID_30_" class="st11" d="M327.8,155.2c0,0,3.5,23,9.3,23c5.8,0,10.2-23,10.2-23L327.8,155.2z"/>
	<g id="XMLID_32_">
		<polygon id="XMLID_127_" class="st0" points="323.9,131.6 319.6,153.3 356.7,153.3 352,131.6 		"/>
		<rect id="XMLID_124_" x="337.5" y="99.1" class="st1" width="48.8" height="39.7"/>
		<polygon id="XMLID_123_" class="st2" points="372.3,77.8 352.6,98.3 324.1,98.9 303.5,79.2 302.9,50.6 322.7,30.1 351.2,29.5 
			371.8,49.3 		"/>
		<g id="XMLID_110_">
			<g id="XMLID_379_">
				<path id="XMLID_385_" class="st1" d="M421.7,162.4c0,0,0-0.1,0-0.1C421.7,162.2,421.7,162.5,421.7,162.4z"/>
				<path id="XMLID_382_" class="st1" d="M433.2,162.9L404.7,107l-0.1-0.2l-37.5-24.2l-1.7,2.5l36.5,23.4l-15.8,29.9l1.6,0.3l0,0
					l34,8.3l7.9,15.9h-7.9c0,0,0-0.1,0,0c0.1,2.5,4.5,4.4,9.9,4.4c5.4,0,9.7-1.8,9.9-4.3c0-0.1,0-0.1,0-0.1H433.2z M388.5,137.2
					l14.4-27.4l17.9,34.8L388.5,137.2z"/>
				<path id="XMLID_381_" class="st1" d="M441.5,162.2c0,0,0,0.1,0,0.1C441.5,162.5,441.5,162.2,441.5,162.2z"/>
			</g>
		</g>
		<g id="XMLID_83_">
			<g id="XMLID_400_">
				<path id="XMLID_411_" class="st3" d="M253.9,162.4c0,0,0-0.1,0-0.1C253.9,162.2,253.9,162.5,253.9,162.4z"/>
				<path id="XMLID_402_" class="st3" d="M234.2,162.9C234.2,162.9,234.2,162.8,234.2,162.9c0.1,2.4,4.5,4.4,9.9,4.4
					c5.4,0,9.7-1.8,9.9-4.3c0-0.1,0-0.1,0-0.1H246l7.9-15.9l34-8.1l0,0l1.6-0.5l-15.8-30L310.2,85l-1.7-2.6l-37.5,24.1L271,107
					l-28.6,55.9H234.2z M254.8,144.7l17.9-34.8l14.4,27.4L254.8,144.7z"/>
				<path id="XMLID_401_" class="st3" d="M234.2,162.2c0,0,0,0.1,0,0.1C234.2,162.5,234.2,162.2,234.2,162.2z"/>
			</g>
		</g>
		<g id="XMLID_69_">
			<g id="XMLID_336_">
				<path id="XMLID_345_" class="st3" d="M328.5,162.4c0,0,0-0.1,0-0.1C328.5,162.2,328.5,162.5,328.5,162.4z"/>
				<path id="XMLID_338_" class="st3" d="M348.2,162.2c0,0,0,0.1,0,0.1C348.2,162.5,348.2,162.2,348.2,162.2z"/>
				<path id="XMLID_337_" class="st3" d="M339.6,162.9l0.1-23.6l-3.1,0.2l-0.1,23.4h-8c0,0,0-0.1,0,0c0.1,2.5,4.5,4.4,9.9,4.4
					c5.4,0,9.7-1.8,9.9-4.3c0-0.1,0-0.1,0-0.1H339.6z"/>
			</g>
		</g>
		<polygon id="XMLID_68_" class="st2" points="302.9,50.6 297.8,80.9 288.7,99.8 329.6,100.8 		"/>
		<circle id="XMLID_65_" class="st4" cx="337.5" cy="19.2" r="7.8"/>
		<polygon id="XMLID_64_" class="st5" points="321.5,46.5 297.8,34.4 299,32.7 322.5,44.5 		"/>
		<rect id="XMLID_63_" x="336.1" y="26.9" class="st5" width="2.6" height="4.4"/>
		<circle id="XMLID_62_" class="st4" cx="338.2" cy="69.8" r="30"/>
		<rect id="XMLID_61_" x="293.3" y="32.4" class="st5" width="28.7" height="1.9"/>
		<circle id="XMLID_60_" class="st4" cx="286" cy="33.2" r="8"/>
		<g id="XMLID_57_">
			<path id="XMLID_59_" class="st6" d="M308.8,63.9h21.3l2.4-15.7L319,46.7C313.8,51,310.1,57.9,308.8,63.9z"/>
			<path id="XMLID_58_" class="st6" d="M357.6,46.8l-12.7,1.4l2.4,15.7h20.5C366.3,57.9,362.7,51.1,357.6,46.8z"/>
		</g>
		<polygon id="XMLID_49_" class="st7" points="367.6,99.1 357.7,89.1 357.7,75.2 367.6,65.8 381.5,65.8 391,75.2 391,89.1 
			381.5,99.1 		"/>
		<path id="XMLID_47_" class="st6" d="M324.4,96.4c4.1,2.2,8.9,3.4,13.9,3.4c5.1,0,9.9-1.3,14-3.5l-5.1-32.4h-17.1L324.4,96.4z"/>
		<rect id="XMLID_44_" x="288.7" y="99.1" class="st3" width="48.8" height="39.7"/>
		<polygon id="XMLID_43_" class="st8" points="311.9,55.3 301.3,60.4 300,68.2 307.7,65.8 		"/>
		<polygon id="XMLID_34_" class="st8" points="309,77.2 315.4,89.3 297.8,80.9 298.5,77.1 309,77.2 		"/>
	</g>
</g>
<g id="XMLID_50_">
	<g id="XMLID_75_">
		<polygon id="XMLID_259_" class="st9" points="596.3,127.2 597.8,145.8 627.9,137.2 619.1,120.7 		"/>
		
			<rect id="XMLID_256_" x="561.2" y="128.7" transform="matrix(0.8891 -0.4577 0.4577 0.8891 -0.672 283.9003)" class="st1" width="48.8" height="29.4"/>
		<polygon id="XMLID_255_" class="st2" points="594.1,127.3 574.3,147.8 545.8,148.4 525.2,128.6 524.7,100.1 544.4,79.6 572.9,79 
			593.5,98.8 		"/>
		<g id="XMLID_242_">
			<g id="XMLID_355_">
				<path id="XMLID_360_" class="st1" d="M636,147.4C636,147.4,636,147.4,636,147.4C635.9,147.4,636.1,147.5,636,147.4z"/>
				<path id="XMLID_357_" class="st1" d="M643.3,138.5l-60.4-15.4l0,0.1l-42.9,12l0.8,2.9l41.8-11.7l11.9,31.6l1.3-0.9l0,0
					l28.4-20.3l16.8,4.3l-5.3,5.9c0.2,0.2,0.3,0.3,0.4,0.3c2,1.6,6.5-0.3,10-4.3c3.6-4,4.8-8.7,3-10.5c-0.1,0-0.2-0.1-0.3-0.3
					L643.3,138.5z M595.1,155.7l-10.9-29l38,9.7L595.1,155.7z"/>
				<path id="XMLID_356_" class="st1" d="M649,132.6C649,132.6,649,132.6,649,132.6C649.2,132.8,649,132.5,649,132.6z"/>
			</g>
		</g>
		<g id="XMLID_215_">
			<g id="XMLID_348_">
				<path id="XMLID_353_" class="st3" d="M496.9,159.3C497,159.2,497,159.2,496.9,159.3C497,159.1,496.9,159.4,496.9,159.3z"/>
				<path id="XMLID_350_" class="st3" d="M478.2,153.1c0,0-0.1,0.3-0.1,0.4c-0.6,2.5,2.9,5.8,8.1,7.4c5.2,1.6,10,0.8,10.8-1.6
					c0-0.1,0.1-0.5,0.1-0.5l-7.6-2.3l12-12.5l34.8,2.3l0,0l1.6,0.1l-6.5-33.2l41.7-11.9l-0.8-2.9l-42.8,12.3l0,0l-43.4,44.8
					L478.2,153.1z M502.9,142.6l27.2-28.2l5.9,30.4L502.9,142.6z"/>
				<path id="XMLID_349_" class="st3" d="M478.1,153.4c0,0,0,0.1,0,0.1C478,153.7,478.1,153.4,478.1,153.4z"/>
			</g>
		</g>
		<g id="XMLID_201_">
			<g id="XMLID_329_">
				<path id="XMLID_332_" class="st3" d="M595,165.4C595,165.4,595,165.4,595,165.4C595,165.3,595.1,165.6,595,165.4z"/>
				<path id="XMLID_331_" class="st3" d="M610.7,153.4C610.7,153.4,610.7,153.5,610.7,153.4C610.9,153.7,610.7,153.4,610.7,153.4z"
					/>
				<path id="XMLID_330_" class="st3" d="M603.6,158.3l-13.8-18.5l-2.5,1.9l13.8,18.5l-6.4,4.8c0.2,0.2,0.3,0.3,0.3,0.4
					c1.6,1.9,6.4,1,10.7-2.2c4.3-3.2,6.4-7.6,5-9.7c0-0.1-0.1-0.2-0.3-0.3L603.6,158.3z"/>
			</g>
		</g>
		<polygon id="XMLID_200_" class="st2" points="524.7,100.1 519.6,130.4 510.5,149.3 551.3,150.3 		"/>
		<circle id="XMLID_197_" class="st4" cx="600.1" cy="132.4" r="7.8"/>
		<polygon id="XMLID_190_" class="st5" points="536,169.9 512.3,157.7 513.5,156 537,167.8 		"/>
		<rect id="XMLID_182_" x="594.1" y="136.5" class="st5" width="2.6" height="4.4"/>
		<circle id="XMLID_181_" class="st4" cx="560" cy="119.2" r="30"/>
		<rect id="XMLID_171_" x="511.2" y="152.1" class="st5" width="28.7" height="1.9"/>
		<circle id="XMLID_170_" class="st4" cx="510.6" cy="155" r="8"/>
		<g id="XMLID_167_">
			<path id="XMLID_169_" class="st6" d="M529.6,111.9h21.3l2.4-15.9l-13.5-1.4C534.6,98.9,530.9,104.9,529.6,111.9z"/>
			<path id="XMLID_168_" class="st6" d="M578.4,94.6l-12.7,1.5l2.4,15.8h20.5C587.1,104.9,583.5,98.9,578.4,94.6z"/>
		</g>
		<polygon id="XMLID_154_" class="st7" points="593.2,130.5 583.2,120.5 583.2,106.6 593.2,97.2 607,97.2 616.5,106.6 616.5,120.5 
			607,130.5 		"/>
		<path id="XMLID_136_" class="st6" d="M546.1,146.2c4.1,2.2,8.9,3.3,13.9,3.3c5.1,0,9.9-1.1,14-3.3l-5.1-32.2h-17.1L546.1,146.2z"
			/>
		
			<rect id="XMLID_91_" x="523.5" y="137.4" transform="matrix(0.9915 0.1303 -0.1303 0.9915 24.4861 -70.1023)" class="st3" width="48.8" height="29.4"/>
		<polygon id="XMLID_90_" class="st8" points="537.5,86.7 526.8,91.8 525.5,99.6 533.2,97.2 		"/>
		<polygon id="XMLID_85_" class="st8" points="530.7,126.7 537.1,138.7 519.6,130.4 520.2,126.6 530.7,126.7 		"/>
	</g>
	<polygon id="XMLID_45_" class="st3" points="510.1,135.1 480.2,108.8 510.2,110.9 494.7,71.1 510.2,80.2 515.1,45.3 528,67.9 
		562,12.5 572.8,57.8 584.3,29.7 591.7,67.9 624.3,62.1 603.9,73.8 652.7,85.5 624.2,101.2 648.4,112.4 617,119.4 617,150.6 
		605.9,148.7 599.3,163.5 566.5,163.7 542.2,168.9 	"/>
	<path id="XMLID_46_" class="st12" d="M536.3,114.8l9.4-60.1l9.7,46.9L580,76L575,91.9h32.3c0,0-25.3,8.3-21.6,8.4
		c3.7,0,31.1,7.7,31.1,7.7l-20.3,7l20.2,13.3l-25.9,6.6l-3,17.5L569,128l-19.7,24.3l-3.6-31.9l-25.4,6.3L536.3,114.8z"/>
	<polygon id="XMLID_48_" class="st12" points="528.9,15.9 522.8,40 528.9,53.1 534.7,38.5 	"/>
	<polygon id="XMLID_51_" class="st3" points="600,34.4 600,50.6 616.5,34.5 	"/>
</g>
</svg>
